<svg width="199" height="48" viewBox="0 0 199 48" fill="none" xmlns="http://www.w3.org/2000/svg">
<path d="M17 14.7941L18.2749 15.174C18.2924 9.14617 24.7412 4.52696 30.6255 7.33408C33.6887 8.79531 35.5404 12.0605 35.8048 15.25L37 14.7182C36.6589 7.14255 26.8316 2.16544 20.5857 7.43749C19.5688 8.29578 18.774 9.30351 18.1758 10.4636C17.5002 11.7738 17.0658 13.3325 17 14.7941Z" fill="#31475F"/>
<path d="M28.9398 5.25L29 5.45004L28.9398 5.25ZM24 5.65001L24.0904 6.25L24 5.65001Z" fill="#B6DFEB"/>
<path d="M24 5.25L24.0877 6.25L24 5.25ZM28.9123 5.25L29 6.25L28.9123 5.25Z" fill="#47BFA9"/>
<path d="M28.9469 5.25L29 5.50004L28.9469 5.25ZM24 5.99996L24.0531 6.25L24 5.99996Z" fill="#B6DFEB"/>
<path d="M31.9203 6.25L32 6.75L31.9203 6.25ZM21 6.75L21.0797 7.25L21 6.75ZM24.0822 6.91665L24.1352 7.08335L24.0822 6.91665ZM28.971 6.75L29.0507 7.25L28.971 6.75Z" fill="#B6DFEB"/>
<path d="M31.9214 6.25L32 6.75L31.9214 6.25ZM21 6.75L21.0786 7.25L21 6.75Z" fill="#B6DFEB"/>
<path d="M33.9218 7.25L34 7.75L33.9218 7.25ZM20 7.75L20.0782 8.25L20 7.75ZM21.8771 7.75L21.9553 8.25L21.8771 7.75ZM32.1229 7.75L32.2011 8.25L32.1229 7.75Z" fill="#47BFA9"/>
<path d="M33.6791 7.25L33.7594 7.45L33.6791 7.25ZM19.2406 7.45L19.3209 7.65L19.2406 7.45ZM21.1658 7.45L21.246 7.65L21.1658 7.45ZM31.8342 7.45L31.9144 7.65L31.8342 7.45ZM33.7594 7.45L33.8396 7.65L33.7594 7.45ZM19.1604 7.65L19.2406 7.85L19.1604 7.65ZM21.0856 7.65L21.1658 7.85L21.0856 7.65ZM31.9144 7.65L31.9947 7.85L31.9144 7.65ZM33.8396 7.65L33.9198 7.85L33.8396 7.65ZM19.0802 7.85L19.1604 8.05L19.0802 7.85ZM21.0053 7.85L21.0856 8.05L21.0053 7.85ZM31.9947 7.85L32.0749 8.05L31.9947 7.85ZM33.9198 7.85L34 8.05L33.9198 7.85ZM19 8.05L19.0802 8.25L19 8.05Z" fill="#B6DFEB"/>
<path d="M20 8.25L20.0855 9.25L20 8.25ZM32.9145 8.25L33 9.25L32.9145 8.25Z" fill="#47BFA9"/>
<path d="M34 8.25L35 9.25L34 8.25Z" fill="#B6DFEB"/>
<path d="M34.95 9.25L35 10.25L34.95 9.25ZM34 10.25L34.05 11.25L34 10.25Z" fill="#B6DFEB"/>
<path d="M19.4229 11.25L19.4978 11.75L19.4229 11.25ZM33.5022 11.25L33.5771 11.75L33.5022 11.25ZM18 11.75L18.0749 12.25L18 11.75ZM34.9251 11.75L35 12.25L34.9251 11.75Z" fill="#B6DFEB"/>
<path d="M17 12.4501L17.0265 12.6499L17 12.4501ZM34.5181 12.25L34.5975 12.55L34.5181 12.25ZM35.9735 12.4501L36 12.6499L35.9735 12.4501ZM18.3496 13.0502L18.3761 13.25L18.3496 13.0502Z" fill="#B6DFEB"/>
<path d="M6 14.25L6.98516 17.4816L9.01206 23.8715L9.75595 26.2218L10.1441 27.1745L12.1718 27.25H17.7824H37.4198H42.5496L44.4281 27.1745L44.764 26.2952L45.4052 23.9449L47.1482 17.5551L48 14.25C45.186 14.25 42.3047 14.6533 39.5038 14.8985C38.5446 14.9826 37.0673 14.8205 36.2176 15.2675C33.8903 16.492 31.7276 18.2352 29.5649 19.6935L27.8015 20.8687C27.5847 21.0148 27.2847 21.2888 27 21.2953C26.7138 21.3017 26.4167 21.024 26.1985 20.8815L24.4351 19.7371C22.2488 18.3094 20.0896 16.6911 17.7824 15.4347C16.8693 14.9375 15.2968 15.0675 14.2557 14.9721C11.537 14.723 8.73216 14.2503 6 14.25Z" fill="#49BFE4"/>
<path d="M36.8219 14.4168L36.8487 14.5832L36.8219 14.4168ZM43.9352 14.25V14.5H44.3364L43.9352 14.25ZM10 14.5V14.75H10.4011L10 14.5ZM18.1027 14.5V15.25H18.183L18.1027 14.5ZM35.4581 14.6668L35.4849 14.8332L35.4581 14.6668ZM42.9725 14.5V14.75H43.3737L42.9725 14.5ZM47.9732 14.6668L48 14.8332L47.9732 14.6668ZM10.8023 14.75V15H11.2034L10.8023 14.75Z" fill="#B6DFEB"/>
<path d="M42.5922 14.25V14.6786H43L42.5922 14.25ZM6 14.9645L6.02724 15.25L6 14.9645ZM11.6003 14.6786V15.1073H12.0081L11.6003 14.6786Z" fill="#B6DFEB"/>
<path d="M41.5055 14.25V14.5833H42L41.5055 14.25ZM12 14.5833V14.9167H12.4121L12 14.5833ZM40.5989 14.5833V14.9167H41.011L40.5989 14.5833ZM12.8242 14.9167V15.25H13.2363L12.8242 14.9167Z" fill="#B6DFEB"/>
<path d="M35.9645 15.25V15.5625H36.0439L35.9645 15.25ZM47.9735 15.3021L48 15.3541L47.9735 15.3021ZM7 15.3281L7.07935 15.4062L7 15.3281ZM18.6652 15.4844L18.7445 15.5625L18.6652 15.4844ZM7.10578 15.6146L7.13229 15.6666L7.10578 15.6146ZM18.8239 15.5625L18.9032 15.6406L18.8239 15.5625ZM47.8941 15.6146L47.9206 15.6666L47.8941 15.6146ZM18.9032 15.6406L18.9826 15.7188L18.9032 15.6406ZM35.7264 15.6406L35.8058 15.7188L35.7264 15.6406ZM19.1413 15.7969L19.2206 15.875L19.1413 15.7969ZM35.4884 15.7969L35.5677 15.875L35.4884 15.7969ZM7.15871 15.875L7.23806 15.9531L7.15871 15.875ZM35.409 15.875L35.4884 15.9531L35.409 15.875ZM47.8148 15.9271L47.8413 15.9791L47.8148 15.9271ZM19.3793 15.9531L19.4587 16.0312L19.3793 15.9531ZM19.4587 16.0312L19.5381 16.1094L19.4587 16.0312ZM35.1709 16.0312L35.2503 16.1094L35.1709 16.0312ZM7.26449 16.1615L7.29099 16.2135L7.26449 16.1615ZM35.0916 16.1094L35.1709 16.1875L35.0916 16.1094ZM19.6968 16.1875L19.7761 16.2656L19.6968 16.1875ZM47.7354 16.2396L47.7619 16.2916L47.7354 16.2396ZM34.8535 16.2656L34.9329 16.3438L34.8535 16.2656ZM19.9348 16.3438L20.0142 16.4219L19.9348 16.3438ZM7.31742 16.4219L7.39677 16.5L7.31742 16.4219ZM20.0142 16.4219L20.0935 16.5L20.0142 16.4219ZM34.6155 16.4219L34.6948 16.5L34.6155 16.4219ZM20.1729 16.5L20.2522 16.5781L20.1729 16.5ZM34.5361 16.5L34.6155 16.5781L34.5361 16.5ZM47.6561 16.5521L47.6826 16.6041L47.6561 16.5521ZM20.2522 16.5781L20.3316 16.6562L20.2522 16.5781ZM7.4232 16.7084L7.4497 16.7604L7.4232 16.7084ZM34.298 16.6562L34.3774 16.7344L34.298 16.6562ZM20.4903 16.7344L20.5697 16.8125L20.4903 16.7344ZM34.2187 16.7344L34.298 16.8125L34.2187 16.7344ZM20.5697 16.8125L20.649 16.8906L20.5697 16.8125ZM47.5767 16.8646L47.6032 16.9166L47.5767 16.8646ZM7.50255 16.9427L7.52906 16.9948L7.50255 16.9427ZM20.7284 16.8906L20.8077 16.9688L20.7284 16.8906ZM33.9806 16.8906L34.06 16.9688L33.9806 16.8906ZM20.8077 16.9688L20.8871 17.0469L20.8077 16.9688ZM33.7426 17.0469L33.8219 17.125L33.7426 17.0469ZM21.0458 17.125L21.1252 17.2031L21.0458 17.125ZM33.6632 17.125L33.7426 17.2031L33.6632 17.125ZM47.4974 17.1771L47.5239 17.2291L47.4974 17.1771ZM7.58191 17.2552L7.60841 17.3073L7.58191 17.2552ZM21.2839 17.2812L21.3632 17.3594L21.2839 17.2812ZM33.4251 17.2812L33.5045 17.3594L33.4251 17.2812ZM21.3632 17.3594L21.4426 17.4375L21.3632 17.3594ZM33.3458 17.3594L33.4251 17.4375L33.3458 17.3594ZM7.66126 17.4896L7.68777 17.5416L7.66126 17.4896ZM21.5219 17.4375L21.6013 17.5156L21.5219 17.4375ZM47.418 17.4896L47.4445 17.5416L47.418 17.4896ZM21.6013 17.5156L21.6806 17.5938L21.6013 17.5156ZM33.1077 17.5156L33.1871 17.5938L33.1077 17.5156ZM21.8393 17.6719L21.9187 17.75L21.8393 17.6719ZM32.8697 17.6719L32.949 17.75L32.8697 17.6719ZM7.71419 17.75L7.79355 17.8281L7.71419 17.75ZM21.9187 17.75L21.9981 17.8281L21.9187 17.75ZM32.7903 17.75L32.8697 17.8281L32.7903 17.75ZM47.3387 17.8021L47.3652 17.8541L47.3387 17.8021ZM22.0774 17.8281L22.1568 17.9062L22.0774 17.8281ZM22.1568 17.9062L22.2361 17.9844L22.1568 17.9062ZM32.5522 17.9062L32.6316 17.9844L32.5522 17.9062ZM7.81997 18.0365L7.84648 18.0885L7.81997 18.0365ZM32.4729 17.9844L32.5522 18.0625L32.4729 17.9844ZM22.3948 18.0625L22.4742 18.1406L22.3948 18.0625ZM47.2593 18.1146L47.2858 18.1666L47.2593 18.1146ZM22.4742 18.1406L22.5535 18.2188L22.4742 18.1406ZM32.2348 18.1406L32.3142 18.2188L32.2348 18.1406ZM22.6329 18.2188L22.7122 18.2969L22.6329 18.2188ZM7.8729 18.2969L7.95226 18.375L7.8729 18.2969ZM22.7122 18.2969L22.7916 18.375L22.7122 18.2969ZM31.9968 18.2969L32.0761 18.375L31.9968 18.2969ZM31.9174 18.375L31.9968 18.4531L31.9174 18.375ZM47.1799 18.4271L47.2065 18.4791L47.1799 18.4271ZM22.9503 18.4531L23.0297 18.5312L22.9503 18.4531ZM7.97868 18.5834L8.00519 18.6354L7.97868 18.5834ZM31.6793 18.5312L31.7587 18.6094L31.6793 18.5312ZM23.1884 18.6094L23.2677 18.6875L23.1884 18.6094ZM31.6 18.6094L31.6793 18.6875L31.6 18.6094ZM23.2677 18.6875L23.3471 18.7656L23.2677 18.6875ZM47.1006 18.7396L47.1271 18.7916L47.1006 18.7396ZM23.4264 18.7656L23.5058 18.8438L23.4264 18.7656ZM31.3619 18.7656L31.4413 18.8438L31.3619 18.7656ZM8.03161 18.8438L8.11097 18.9219L8.03161 18.8438ZM23.5058 18.8438L23.5851 18.9219L23.5058 18.8438ZM31.1239 18.9219L31.2032 19L31.1239 18.9219ZM23.7439 19L23.8232 19.0781L23.7439 19ZM31.0445 19L31.1239 19.0781L31.0445 19ZM47.0212 19.0521L47.0477 19.1041L47.0212 19.0521ZM8.13739 19.1302L8.1639 19.1823L8.13739 19.1302ZM23.8232 19.0781L23.9026 19.1562L23.8232 19.0781ZM23.9819 19.1562L24.0613 19.2344L23.9819 19.1562ZM30.8064 19.1562L30.8858 19.2344L30.8064 19.1562ZM24.0613 19.2344L24.1406 19.3125L24.0613 19.2344ZM30.7271 19.2344L30.8064 19.3125L30.7271 19.2344ZM8.21675 19.3646L8.24325 19.4166L8.21675 19.3646ZM46.9419 19.3646L46.9684 19.4166L46.9419 19.3646ZM24.2993 19.3906L24.3787 19.4688L24.2993 19.3906ZM30.489 19.3906L30.5684 19.4688L30.489 19.3906ZM24.5374 19.5469L24.6168 19.625L24.5374 19.5469ZM30.251 19.5469L30.3303 19.625L30.251 19.5469ZM8.2961 19.6771L8.32261 19.7291L8.2961 19.6771ZM24.6168 19.625L24.6961 19.7031L24.6168 19.625ZM30.1716 19.625L30.251 19.7031L30.1716 19.625ZM46.8625 19.6771L46.889 19.7291L46.8625 19.6771ZM24.8548 19.7812L24.9342 19.8594L24.8548 19.7812ZM29.9335 19.7812L30.0129 19.8594L29.9335 19.7812ZM8.37546 19.9115L8.40196 19.9635L8.37546 19.9115ZM29.8542 19.8594L29.9335 19.9375L29.8542 19.8594ZM25.0929 19.9375L25.1722 20.0156L25.0929 19.9375ZM46.7832 19.9896L46.8097 20.0416L46.7832 19.9896ZM25.1722 20.0156L25.2516 20.0938L25.1722 20.0156ZM29.6161 20.0156L29.6955 20.0938L29.6161 20.0156ZM25.331 20.0938L25.4103 20.1719L25.331 20.0938ZM8.42839 20.1719L8.50774 20.25L8.42839 20.1719ZM25.4103 20.1719L25.4897 20.25L25.4103 20.1719ZM29.378 20.1719L29.4574 20.25L29.378 20.1719ZM29.2987 20.25L29.378 20.3281L29.2987 20.25ZM46.7038 20.3021L46.7303 20.3541L46.7038 20.3021ZM25.6484 20.3281L25.7277 20.4062L25.6484 20.3281ZM8.53417 20.4584L8.56067 20.5104L8.53417 20.4584ZM25.7277 20.4062L25.8071 20.4844L25.7277 20.4062ZM29.0606 20.4062L29.14 20.4844L29.0606 20.4062ZM25.8864 20.4844L25.9658 20.5625L25.8864 20.4844ZM28.9813 20.4844L29.0606 20.5625L28.9813 20.4844ZM25.9658 20.5625L26.0451 20.6406L25.9658 20.5625ZM46.6245 20.6146L46.651 20.6666L46.6245 20.6146ZM28.7432 20.6406L28.8226 20.7188L28.7432 20.6406ZM8.5871 20.7188L8.66645 20.7969L8.5871 20.7188ZM26.2039 20.7188L26.2832 20.7969L26.2039 20.7188ZM28.5051 20.7969L28.5845 20.875L28.5051 20.7969ZM26.4419 20.875L26.5213 20.9531L26.4419 20.875ZM28.4258 20.875L28.5051 20.9531L28.4258 20.875ZM46.5451 20.9271L46.5716 20.9791L46.5451 20.9271ZM8.69288 21.0052L8.71938 21.0573L8.69288 21.0052ZM26.5213 20.9531L26.6006 21.0312L26.5213 20.9531ZM26.68 21.0312L26.7593 21.1094L26.68 21.0312ZM28.1877 21.0312L28.2671 21.1094L28.1877 21.0312ZM26.7593 21.1094L26.8387 21.1875L26.7593 21.1094ZM28.1084 21.1094L28.1877 21.1875L28.1084 21.1094ZM8.77223 21.2396L8.79874 21.2916L8.77223 21.2396ZM46.4658 21.2396L46.4923 21.2916L46.4658 21.2396ZM26.9974 21.2656L27.0768 21.3438L26.9974 21.2656ZM27.8703 21.2656L27.9497 21.3438L27.8703 21.2656ZM27.0768 21.3438L27.1561 21.4219L27.0768 21.3438ZM27.2355 21.4219L27.3148 21.5L27.2355 21.4219ZM27.6322 21.4219L27.7116 21.5L27.6322 21.4219ZM8.85158 21.5521L8.87809 21.6041L8.85158 21.5521ZM27.3148 21.5L27.3942 21.5781L27.3148 21.5ZM27.5529 21.5L27.6322 21.5781L27.5529 21.5ZM46.3864 21.5521L46.4129 21.6041L46.3864 21.5521ZM8.93094 21.7865L8.95745 21.8385L8.93094 21.7865ZM46.307 21.8646L46.3335 21.9166L46.307 21.8646ZM8.98387 22.0469L9.06322 22.125L8.98387 22.0469ZM46.2277 22.1771L46.2542 22.2291L46.2277 22.1771ZM9.08965 22.3334L9.11615 22.3854L9.08965 22.3334ZM46.1483 22.4896L46.1748 22.5416L46.1483 22.4896ZM9.14258 22.5938L9.22193 22.6719L9.14258 22.5938ZM46.069 22.8021L46.0955 22.8541L46.069 22.8021ZM9.24836 22.8802L9.27486 22.9323L9.24836 22.8802ZM45.9896 23.1146L46.0161 23.1666L45.9896 23.1146ZM9.30129 23.1406L9.38064 23.2188L9.30129 23.1406ZM9.40707 23.4271L9.43357 23.4791L9.40707 23.4271ZM45.9103 23.4271L45.9368 23.4791L45.9103 23.4271ZM9.48642 23.6615L9.51293 23.7135L9.48642 23.6615ZM45.8309 23.7396L45.8574 23.7916L45.8309 23.7396ZM9.56578 23.974L9.59228 24.026L9.56578 23.974ZM45.7516 24.0521L45.7781 24.1041L45.7516 24.0521ZM9.64513 24.2084L9.67164 24.2604L9.64513 24.2084ZM45.6722 24.3646L45.6987 24.4166L45.6722 24.3646ZM9.69806 24.4688L9.77742 24.5469L9.69806 24.4688ZM45.5928 24.6771L45.6194 24.7291L45.5928 24.6771ZM9.80384 24.7552L9.83035 24.8073L9.80384 24.7552ZM45.5135 24.9896L45.54 25.0416L45.5135 24.9896ZM9.85677 25.0156L9.93613 25.0938L9.85677 25.0156ZM9.96255 25.3021L9.98906 25.3541L9.96255 25.3021ZM45.4341 25.3021L45.4606 25.3541L45.4341 25.3021ZM10.0155 25.5625L10.0948 25.6406L10.0155 25.5625ZM45.3548 25.6146L45.3813 25.6666L45.3548 25.6146ZM10.1213 25.849L10.1478 25.901L10.1213 25.849ZM45.2754 25.9271L45.3019 25.9791L45.2754 25.9271ZM10.2006 26.0834L10.2271 26.1354L10.2006 26.0834ZM45.1961 26.2396L45.2226 26.2916L45.1961 26.2396ZM10.28 26.3959L10.3065 26.4479L10.28 26.3959ZM45.1167 26.5521L45.1432 26.6041L45.1167 26.5521ZM10.3593 26.6302L10.3858 26.6823L10.3593 26.6302ZM45.0374 26.8646L45.0639 26.9166L45.0374 26.8646ZM10.4123 26.8906L10.4916 26.9688L10.4123 26.8906ZM10.518 27.1771L10.5445 27.2291L10.518 27.1771ZM44.958 27.1771L44.9845 27.2291L44.958 27.1771ZM10.571 27.4375L10.6503 27.5156L10.571 27.4375ZM44.8787 27.4896L44.9052 27.5416L44.8787 27.4896ZM10.6767 27.724L10.7033 27.776L10.6767 27.724ZM44.7729 27.75L44.8522 27.8281L44.7729 27.75ZM10.7297 27.8281V27.9062H44.7729C43.9771 27.5775 42.622 27.8281 41.7574 27.8281H34.8535H10.7297ZM11.4439 30.1719L11.5232 30.25L11.4439 30.1719Z" fill="#B6DFEB"/>
<path d="M10 30.25L12.2876 37.3245L14.4563 44.1011C15.2329 43.743 15.7821 42.5768 16.2835 41.9415C17.3684 40.5666 18.3959 39.1548 19.4672 37.7713C20.0271 37.0482 20.7931 36.2905 21.1408 35.4628L25.9272 37.6776L35.9951 42.3322L40.2039 44.25L43.0001 34.0479L44 30.25H10Z" fill="#47BFA9"/>
<path d="M43.9725 30.25L44 30.2998L43.9725 30.25ZM10 30.3247L10.0275 30.3745L10 30.3247ZM10.055 30.4991V30.7233H10.1375L10.055 30.4991ZM43.8625 30.4991V30.7233H43.945L43.8625 30.4991ZM10.1375 30.7233V30.9475H10.2199L10.1375 30.7233ZM43.7801 30.798V31.0222H43.8625L43.7801 30.798ZM10.2199 31.0222V31.2464H10.3024L10.2199 31.0222ZM43.6976 31.097V31.3212H43.7801L43.6976 31.097ZM10.3024 31.2464V31.4706H10.3848L10.3024 31.2464ZM43.6152 31.3959V31.6201H43.6976L43.6152 31.3959ZM10.4123 31.5952L10.4398 31.645L10.4123 31.5952ZM43.5327 31.6948V31.919H43.6152L43.5327 31.6948ZM10.4673 31.7696V31.9938H10.5497L10.4673 31.7696ZM43.4503 31.9938V32.218H43.5327L43.4503 31.9938ZM10.5772 32.1183L10.6047 32.1681L10.5772 32.1183ZM10.6322 32.2927V32.5169H10.7147L10.6322 32.2927ZM43.3678 32.2927V32.5169H43.4503L43.3678 32.2927ZM10.7421 32.6415L10.7697 32.6912L10.7421 32.6415ZM43.2853 32.5916V32.8158H43.3678L43.2853 32.5916ZM10.7971 32.8158V33.04H10.8796L10.7971 32.8158ZM43.2029 32.8905V33.1147H43.2853L43.2029 32.8905ZM10.8796 33.04V33.2642H10.962L10.8796 33.04ZM43.1204 33.1895V33.4137H43.2029L43.1204 33.1895ZM10.9895 33.3888L11.017 33.4386L10.9895 33.3888ZM43.038 33.4884V33.7126H43.1204L43.038 33.4884ZM11.0445 33.5631V33.7873H11.1269L11.0445 33.5631ZM42.9555 33.7873V34.0115H43.038L42.9555 33.7873ZM11.1544 33.9119L11.1819 33.9617L11.1544 33.9119ZM11.2094 34.0863V34.3105H11.2919L11.2094 34.0863ZM42.8731 34.0863V34.3105H42.9555L42.8731 34.0863ZM11.3193 34.4351L11.3469 34.4848L11.3193 34.4351ZM42.8181 34.5098L42.8456 34.5596L42.8181 34.5098ZM11.3743 34.6094V34.8336H11.4568L11.3743 34.6094ZM42.7356 34.8087L42.7631 34.8585L42.7356 34.8087ZM11.4842 34.9582L11.5118 35.008L11.4842 34.9582ZM42.6531 35.1077L42.6807 35.1574L42.6531 35.1077ZM11.5392 35.1325V35.3567H11.6217L11.5392 35.1325ZM11.6217 35.3567V35.5809H11.7041L11.6217 35.3567ZM42.5707 35.4066L42.5982 35.4564L42.5707 35.4066ZM21.1043 35.4315V35.5809L21.2692 35.4315H21.1043ZM21.3517 35.5062L21.4341 35.5809L21.3517 35.5062ZM21.0218 35.5809L21.1043 35.6557L21.0218 35.5809ZM21.5166 35.5809L21.599 35.6557L21.5166 35.5809ZM11.7316 35.7055L11.7591 35.7553L11.7316 35.7055ZM20.9668 35.7055L20.9944 35.7553L20.9668 35.7055ZM21.6815 35.6557L21.764 35.7304L21.6815 35.6557ZM42.4882 35.7055L42.5158 35.7553L42.4882 35.7055ZM21.8464 35.7304L21.9289 35.8051L21.8464 35.7304ZM20.8569 35.8051L20.9394 35.8799L20.8569 35.8051ZM22.0113 35.8051L22.0938 35.8799L22.0113 35.8051ZM11.7866 35.8799V36.1041H11.8691L11.7866 35.8799ZM20.8019 35.9297L20.8295 35.9795L20.8019 35.9297ZM22.1762 35.8799L22.2587 35.9546L22.1762 35.8799ZM22.3412 35.9546L22.4236 36.0293L22.3412 35.9546ZM42.4058 36.0045L42.4333 36.0542L42.4058 36.0045ZM20.692 36.0293L20.7745 36.1041L20.692 36.0293ZM22.4786 36.0542L22.5335 36.0792L22.4786 36.0542ZM20.6096 36.1041L20.692 36.1788L20.6096 36.1041ZM22.5885 36.1041L22.671 36.1788L22.5885 36.1041ZM11.8965 36.2287L11.9241 36.2784L11.8965 36.2287ZM22.7534 36.1788L22.8359 36.2535L22.7534 36.1788ZM20.5271 36.2535L20.6096 36.3283L20.5271 36.2535ZM22.9184 36.2535L23.0008 36.3283L22.9184 36.2535ZM42.3233 36.3034L42.3509 36.3532L42.3233 36.3034ZM20.4446 36.3283L20.5271 36.403L20.4446 36.3283ZM23.0833 36.3283L23.1657 36.403L23.0833 36.3283ZM11.9515 36.403V36.6272H12.034L11.9515 36.403ZM23.2482 36.403L23.3306 36.4777L23.2482 36.403ZM20.3622 36.4777L20.4446 36.5525L20.3622 36.4777ZM23.4131 36.4777L23.4956 36.5525L23.4131 36.4777ZM20.2797 36.5525L20.3622 36.6272L20.2797 36.5525ZM23.578 36.5525L23.6605 36.6272L23.578 36.5525ZM42.2409 36.6023L42.2684 36.6521L42.2409 36.6023ZM20.2247 36.6771L20.2523 36.7268L20.2247 36.6771ZM23.7429 36.6272L23.8254 36.7019L23.7429 36.6272ZM12.0614 36.7518L12.089 36.8016L12.0614 36.7518ZM23.9078 36.7019L23.9903 36.7767L23.9078 36.7019ZM20.1148 36.7767L20.1973 36.8514L20.1148 36.7767ZM24.0728 36.7767L24.1552 36.8514L24.0728 36.7767ZM20.0598 36.9013L20.0873 36.951L20.0598 36.9013ZM24.2377 36.8514L24.3201 36.9261L24.2377 36.8514ZM42.1584 36.9013L42.1859 36.951L42.1584 36.9013ZM12.1164 36.9261V37.1503H12.1989L12.1164 36.9261ZM24.4026 36.9261L24.4851 37.0009L24.4026 36.9261ZM19.9499 37.0009L20.0323 37.0756L19.9499 37.0009ZM24.5675 37.0009L24.65 37.0756L24.5675 37.0009ZM19.8674 37.0756L19.9499 37.1503L19.8674 37.0756ZM24.7324 37.0756L24.8149 37.1503L24.7324 37.0756ZM24.8973 37.1503L24.9798 37.2251L24.8973 37.1503ZM42.0759 37.2002L42.1035 37.25L42.0759 37.2002ZM12.2264 37.2749L12.2539 37.3247L12.2264 37.2749ZM19.785 37.2251L19.8674 37.2998L19.785 37.2251ZM25.0623 37.2251L25.1447 37.2998L25.0623 37.2251ZM19.7025 37.2998L19.785 37.3745L19.7025 37.2998ZM25.2272 37.2998L25.3096 37.3745L25.2272 37.2998ZM25.3646 37.3994L25.4195 37.4244L25.3646 37.3994ZM12.2814 37.4493V37.6735H12.3638L12.2814 37.4493ZM19.6201 37.4493L19.7025 37.524L19.6201 37.4493ZM25.4745 37.4493L25.557 37.524L25.4745 37.4493ZM41.9935 37.4991L42.021 37.5489L41.9935 37.4991ZM19.5376 37.524L19.6201 37.5987L19.5376 37.524ZM25.6395 37.524L25.7219 37.5987L25.6395 37.524ZM19.4826 37.6486L19.5101 37.6984L19.4826 37.6486ZM25.8044 37.5987L25.8868 37.6735L25.8044 37.5987ZM12.3638 37.6735V37.8977H12.4463L12.3638 37.6735ZM25.9693 37.6735L26.0517 37.7482L25.9693 37.6735ZM19.3727 37.7482L19.4551 37.8229L19.3727 37.7482ZM26.1342 37.7482L26.2167 37.8229L26.1342 37.7482ZM41.911 37.7981L41.9386 37.8478L41.911 37.7981ZM19.3177 37.8728L19.3452 37.9226L19.3177 37.8728ZM26.2991 37.8229L26.3816 37.8977L26.2991 37.8229ZM26.464 37.8977L26.5465 37.9724L26.464 37.8977ZM12.4737 38.0223L12.5013 38.072L12.4737 38.0223ZM19.2078 37.9724L19.2902 38.0471L19.2078 37.9724ZM26.6289 37.9724L26.7114 38.0471L26.6289 37.9724ZM19.1253 38.0471L19.2078 38.1219L19.1253 38.0471ZM26.7939 38.0471L26.8763 38.1219L26.7939 38.0471ZM41.8286 38.097L41.8561 38.1468L41.8286 38.097ZM26.9588 38.1219L27.0412 38.1966L26.9588 38.1219ZM12.5287 38.1966V38.4208H12.6112L12.5287 38.1966ZM19.0429 38.1966L19.1253 38.2713L19.0429 38.1966ZM27.1237 38.1966L27.2061 38.2713L27.1237 38.1966ZM18.9604 38.2713L19.0429 38.3461L18.9604 38.2713ZM27.2886 38.2713L27.3711 38.3461L27.2886 38.2713ZM27.4535 38.3461L27.536 38.4208L27.4535 38.3461ZM41.7461 38.3959L41.7737 38.4457L41.7461 38.3959ZM18.8779 38.4208L18.9604 38.4955L18.8779 38.4208ZM27.6184 38.4208L27.7009 38.4955L27.6184 38.4208ZM12.6386 38.5454L12.6662 38.5952L12.6386 38.5454ZM18.7955 38.4955L18.8779 38.5703L18.7955 38.4955ZM27.7833 38.4955L27.8658 38.5703L27.7833 38.4955ZM18.7405 38.6201L18.768 38.6699L18.7405 38.6201ZM27.9483 38.5703L28.0307 38.645L27.9483 38.5703ZM28.1132 38.645L28.1956 38.7197L28.1132 38.645ZM41.6637 38.6949L41.6912 38.7446L41.6637 38.6949ZM12.6936 38.7197V38.9439H12.7761L12.6936 38.7197ZM18.6306 38.7197L18.713 38.7945L18.6306 38.7197ZM28.2506 38.7446L28.3056 38.7696L28.2506 38.7446ZM18.5756 38.8443L18.6031 38.8941L18.5756 38.8443ZM28.3605 38.7945L28.443 38.8692L28.3605 38.7945ZM28.5255 38.8692L28.6079 38.9439L28.5255 38.8692ZM18.4657 38.9439L18.5481 39.0187L18.4657 38.9439ZM28.6904 38.9439L28.7728 39.0187L28.6904 38.9439ZM41.5812 38.9938L41.6087 39.0436L41.5812 38.9938ZM12.8036 39.0685L12.8311 39.1183L12.8036 39.0685ZM18.4107 39.0685L18.4382 39.1183L18.4107 39.0685ZM28.8553 39.0187L28.9378 39.0934L28.8553 39.0187ZM29.0202 39.0934L29.1027 39.1681L29.0202 39.0934ZM18.3007 39.1681L18.3832 39.2429L18.3007 39.1681ZM29.1851 39.1681L29.2676 39.2429L29.1851 39.1681ZM12.8586 39.2429V39.4671H12.941L12.8586 39.2429ZM18.2183 39.2429L18.3007 39.3176L18.2183 39.2429ZM29.35 39.2429L29.4325 39.3176L29.35 39.2429ZM41.4987 39.2927L41.5263 39.3425L41.4987 39.2927ZM29.515 39.3176L29.5974 39.3923L29.515 39.3176ZM18.1358 39.3923L18.2183 39.4671L18.1358 39.3923ZM29.6799 39.3923L29.7623 39.4671L29.6799 39.3923ZM18.0534 39.4671L18.1358 39.5418L18.0534 39.4671ZM29.8448 39.4671L29.9272 39.5418L29.8448 39.4671ZM12.9685 39.5917L12.996 39.6414L12.9685 39.5917ZM30.0097 39.5418L30.0922 39.6165L30.0097 39.5418ZM41.4163 39.5917L41.4438 39.6414L41.4163 39.5917ZM17.9709 39.6165L18.0534 39.6913L17.9709 39.6165ZM30.1746 39.6165L30.2571 39.6913L30.1746 39.6165ZM17.8885 39.6913L17.9709 39.766L17.8885 39.6913ZM30.3395 39.6913L30.422 39.766L30.3395 39.6913ZM13.0509 39.8159L13.0785 39.8656L13.0509 39.8159ZM17.8335 39.8159L17.861 39.8656L17.8335 39.8159ZM30.5044 39.766L30.5869 39.8407L30.5044 39.766ZM30.6694 39.8407L30.7518 39.9155L30.6694 39.8407ZM41.3338 39.8906L41.3614 39.9404L41.3338 39.8906ZM17.7235 39.9155L17.806 39.9902L17.7235 39.9155ZM30.8343 39.9155L30.9167 39.9902L30.8343 39.9155ZM17.6685 40.0401L17.6961 40.0898L17.6685 40.0401ZM30.9992 39.9902L31.0816 40.0649L30.9992 39.9902ZM13.1334 40.1148L13.1609 40.1646L13.1334 40.1148ZM31.1366 40.0898L31.1916 40.1148L31.1366 40.0898ZM17.5586 40.1397L17.6411 40.2144L17.5586 40.1397ZM31.2466 40.1397L31.329 40.2144L31.2466 40.1397ZM41.2514 40.1895L41.2789 40.2393L41.2514 40.1895ZM17.4762 40.2144L17.5586 40.2891L17.4762 40.2144ZM31.4115 40.2144L31.4939 40.2891L31.4115 40.2144ZM13.2158 40.339L13.2434 40.3888L13.2158 40.339ZM31.5764 40.2891L31.6588 40.3639L31.5764 40.2891ZM17.3937 40.3639L17.4762 40.4386L17.3937 40.3639ZM31.7413 40.3639L31.8238 40.4386L31.7413 40.3639ZM17.3113 40.4386L17.3937 40.5133L17.3113 40.4386ZM31.9062 40.4386L31.9887 40.5133L31.9062 40.4386ZM41.1689 40.4885L41.1964 40.5382L41.1689 40.4885ZM13.2708 40.5133V40.7375H13.3533L13.2708 40.5133ZM32.0711 40.5133L32.1536 40.5881L32.0711 40.5133ZM17.2288 40.5881L17.3113 40.6628L17.2288 40.5881ZM32.236 40.5881L32.3185 40.6628L32.236 40.5881ZM17.1463 40.6628L17.2288 40.7375L17.1463 40.6628ZM32.401 40.6628L32.4834 40.7375L32.401 40.6628ZM32.5659 40.7375L32.6483 40.8123L32.5659 40.7375ZM41.0865 40.7874L41.114 40.8372L41.0865 40.7874ZM13.3808 40.8621L13.4083 40.9119L13.3808 40.8621ZM17.0639 40.8123L17.1463 40.887L17.0639 40.8123ZM32.7308 40.8123L32.8132 40.887L32.7308 40.8123ZM16.9814 40.887L17.0639 40.9617L16.9814 40.887ZM32.8957 40.887L32.9782 40.9617L32.8957 40.887ZM16.9264 41.0116L16.954 41.0614L16.9264 41.0116ZM33.0606 40.9617L33.1431 41.0365L33.0606 40.9617ZM13.4358 41.0365V41.2607H13.5182L13.4358 41.0365ZM33.2255 41.0365L33.308 41.1112L33.2255 41.0365ZM41.004 41.0863L41.0315 41.1361L41.004 41.0863ZM16.8165 41.1112L16.899 41.1859L16.8165 41.1112ZM33.3905 41.1112L33.4729 41.1859L33.3905 41.1112ZM16.7341 41.1859L16.8165 41.2607L16.7341 41.1859ZM33.5554 41.1859L33.6378 41.2607L33.5554 41.1859ZM33.7203 41.2607L33.8027 41.3354L33.7203 41.2607ZM13.5457 41.3853L13.5732 41.435L13.5457 41.3853ZM16.6516 41.3354L16.7341 41.4101L16.6516 41.3354ZM33.8852 41.3354L33.9677 41.4101L33.8852 41.3354ZM40.9215 41.3853L40.9491 41.435L40.9215 41.3853ZM16.5691 41.4101L16.6516 41.4849L16.5691 41.4101ZM34.0227 41.435L34.0776 41.46L34.0227 41.435ZM34.1326 41.4849L34.215 41.5596L34.1326 41.4849ZM13.6007 41.5596V41.7838H13.6831L13.6007 41.5596ZM16.4867 41.5596L16.5691 41.6343L16.4867 41.5596ZM34.2975 41.5596L34.3799 41.6343L34.2975 41.5596ZM16.4042 41.6343L16.4867 41.7091L16.4042 41.6343ZM34.4624 41.6343L34.5449 41.7091L34.4624 41.6343ZM40.8391 41.6842L40.8666 41.734L40.8391 41.6842ZM34.6273 41.7091L34.7098 41.7838L34.6273 41.7091ZM13.6831 41.7838V42.008H13.7656L13.6831 41.7838ZM16.3218 41.7838L16.4042 41.8585L16.3218 41.7838ZM34.7922 41.7838L34.8747 41.8585L34.7922 41.7838ZM16.2393 41.8585L16.3218 41.9333L16.2393 41.8585ZM34.9571 41.8585L35.0396 41.9333L34.9571 41.8585ZM16.1843 41.9831L16.2118 42.0329L16.1843 41.9831ZM35.1221 41.9333L35.2045 42.008L35.1221 41.9333ZM40.7566 41.9831L40.7842 42.0329L40.7566 41.9831ZM35.287 42.008L35.3694 42.0827L35.287 42.008ZM13.793 42.1326L13.8206 42.1824L13.793 42.1326ZM16.0744 42.0827L16.1568 42.1575L16.0744 42.0827ZM35.4519 42.0827L35.5343 42.1575L35.4519 42.0827ZM16.0194 42.2073L16.0469 42.2571L16.0194 42.2073ZM35.6168 42.1575L35.6993 42.2322L35.6168 42.1575ZM35.7817 42.2322L35.8642 42.3069L35.7817 42.2322ZM40.6742 42.282L40.7017 42.3318L40.6742 42.282ZM15.9095 42.3069L15.9919 42.3817L15.9095 42.3069ZM35.9466 42.3069L36.0291 42.3817L35.9466 42.3069ZM13.8755 42.4315L13.903 42.4813L13.8755 42.4315ZM15.827 42.3817L15.9095 42.4564L15.827 42.3817ZM36.1115 42.3817L36.194 42.4564L36.1115 42.3817ZM36.2765 42.4564L36.3589 42.5311L36.2765 42.4564ZM15.7446 42.5311L15.827 42.6059L15.7446 42.5311ZM36.4414 42.5311L36.5238 42.6059L36.4414 42.5311ZM40.5917 42.581L40.6192 42.6308L40.5917 42.581ZM13.958 42.6557L13.9855 42.7055L13.958 42.6557ZM15.6621 42.6059L15.7446 42.6806L15.6621 42.6059ZM36.6063 42.6059L36.6887 42.6806L36.6063 42.6059ZM36.7712 42.6806L36.8537 42.7553L36.7712 42.6806ZM15.5796 42.7553L15.6621 42.8301L15.5796 42.7553ZM36.9087 42.7802L36.9636 42.8052L36.9087 42.7802ZM14.013 42.8301V43.0543H14.0954L14.013 42.8301ZM15.4972 42.8301L15.5796 42.9048L15.4972 42.8301ZM37.0186 42.8301L37.101 42.9048L37.0186 42.8301ZM40.5092 42.8799L40.5368 42.9297L40.5092 42.8799ZM15.4422 42.9546L15.4697 43.0044L15.4422 42.9546ZM37.1835 42.9048L37.266 42.9795L37.1835 42.9048ZM37.3484 42.9795L37.4309 43.0543L37.3484 42.9795ZM15.3323 43.0543L15.4147 43.129L15.3323 43.0543ZM37.5133 43.0543L37.5958 43.129L37.5133 43.0543ZM14.1229 43.1788L14.1504 43.2286L14.1229 43.1788ZM15.2773 43.1788L15.3048 43.2286L15.2773 43.1788ZM37.6782 43.129L37.7607 43.2037L37.6782 43.129ZM40.4268 43.1788L40.4543 43.2286L40.4268 43.1788ZM37.8432 43.2037L37.9256 43.2785L37.8432 43.2037ZM15.1674 43.2785L15.2498 43.3532L15.1674 43.2785ZM38.0081 43.2785L38.0905 43.3532L38.0081 43.2785ZM14.1779 43.3532V43.5774H14.2603L14.1779 43.3532ZM15.0849 43.3532L15.1674 43.4279L15.0849 43.3532ZM38.173 43.3532L38.2554 43.4279L38.173 43.3532ZM38.3379 43.4279L38.4204 43.5027L38.3379 43.4279ZM40.3443 43.4778L40.3719 43.5276L40.3443 43.4778ZM15.0024 43.5027L15.0849 43.5774L15.0024 43.5027ZM38.5028 43.5027L38.5853 43.5774L38.5028 43.5027ZM14.92 43.5774L15.0024 43.6521L14.92 43.5774ZM38.6677 43.5774L38.7502 43.6521L38.6677 43.5774ZM14.2878 43.702L14.3153 43.7518L14.2878 43.702ZM38.8326 43.6521L38.9151 43.7269L38.8326 43.6521ZM14.8375 43.7269L14.92 43.8016L14.8375 43.7269ZM38.9976 43.7269L39.08 43.8016L38.9976 43.7269ZM40.2619 43.7767L40.2894 43.8265L40.2619 43.7767ZM14.7551 43.8016L14.8375 43.8763L14.7551 43.8016ZM39.1625 43.8016L39.2449 43.8763L39.1625 43.8016ZM14.3428 43.8763V44.1005H14.4252L14.3428 43.8763ZM39.3274 43.8763L39.4098 43.9511L39.3274 43.8763ZM14.6726 43.9511L14.7551 44.0258L14.6726 43.9511ZM39.4648 43.976L39.5198 44.0009L39.4648 43.976ZM14.5902 44.0258L14.6726 44.1005L14.5902 44.0258ZM39.6572 44.0258L39.7397 44.1005L39.6572 44.0258ZM40.1794 44.0756L40.207 44.1254L40.1794 44.0756ZM14.4252 44.1005V44.25H14.5902V44.1005H14.4252ZM39.7947 44.1254L39.8496 44.1504L39.7947 44.1254ZM39.9046 44.1753L39.987 44.25L39.9046 44.1753Z" fill="#B6DFEB"/>
<path d="M90.098 12.0682V38.25H85.8793L73.5426 20.4162H73.3253V38.25H68.5824V12.0682H72.8267L85.1506 29.9148H85.3807V12.0682H90.098ZM103.755 38.6335C101.786 38.6335 100.086 38.2244 98.6538 37.4062C97.2305 36.5795 96.1353 35.4119 95.3683 33.9034C94.6012 32.3864 94.2177 30.6009 94.2177 28.5469C94.2177 26.527 94.6012 24.7543 95.3683 23.2287C96.1438 21.6946 97.2262 20.5014 98.6154 19.6491C100.005 18.7884 101.637 18.358 103.512 18.358C104.722 18.358 105.864 18.554 106.938 18.946C108.02 19.3295 108.975 19.9261 109.801 20.7358C110.637 21.5455 111.293 22.5767 111.77 23.8295C112.248 25.0739 112.486 26.5568 112.486 28.2784V29.6974H96.391V26.5781H108.05C108.042 25.6918 107.85 24.9034 107.475 24.2131C107.1 23.5142 106.576 22.9645 105.902 22.5639C105.238 22.1634 104.462 21.9631 103.576 21.9631C102.63 21.9631 101.799 22.1932 101.083 22.6534C100.367 23.1051 99.8086 23.7017 99.408 24.4432C99.016 25.1761 98.8157 25.9815 98.8072 26.8594V29.5824C98.8072 30.7244 99.016 31.7045 99.4336 32.5227C99.8512 33.3324 100.435 33.9545 101.185 34.3892C101.935 34.8153 102.813 35.0284 103.819 35.0284C104.492 35.0284 105.101 34.9347 105.647 34.7472C106.192 34.5511 106.665 34.2656 107.066 33.8906C107.466 33.5156 107.769 33.0511 107.973 32.4972L112.294 32.983C112.022 34.125 111.502 35.1222 110.735 35.9744C109.976 36.8182 109.005 37.4744 107.82 37.9432C106.635 38.4034 105.28 38.6335 103.755 38.6335ZM124.967 38.6335C123.049 38.6335 121.387 38.2116 119.981 37.3679C118.575 36.5241 117.484 35.3437 116.708 33.8267C115.941 32.3097 115.558 30.5369 115.558 28.5085C115.558 26.4801 115.941 24.7031 116.708 23.1776C117.484 21.652 118.575 20.4673 119.981 19.6236C121.387 18.7798 123.049 18.358 124.967 18.358C126.884 18.358 128.546 18.7798 129.952 19.6236C131.359 20.4673 132.445 21.652 133.212 23.1776C133.988 24.7031 134.376 26.4801 134.376 28.5085C134.376 30.5369 133.988 32.3097 133.212 33.8267C132.445 35.3437 131.359 36.5241 129.952 37.3679C128.546 38.2116 126.884 38.6335 124.967 38.6335ZM124.992 34.9261C126.032 34.9261 126.901 34.6406 127.6 34.0696C128.299 33.4901 128.819 32.7145 129.16 31.7429C129.509 30.7713 129.684 29.6889 129.684 28.4957C129.684 27.294 129.509 26.2074 129.16 25.2358C128.819 24.2557 128.299 23.4759 127.6 22.8963C126.901 22.3168 126.032 22.027 124.992 22.027C123.927 22.027 123.04 22.3168 122.333 22.8963C121.634 23.4759 121.11 24.2557 120.761 25.2358C120.42 26.2074 120.249 27.294 120.249 28.4957C120.249 29.6889 120.42 30.7713 120.761 31.7429C121.11 32.7145 121.634 33.4901 122.333 34.0696C123.04 34.6406 123.927 34.9261 124.992 34.9261ZM138.508 38.25V12.0682H143.136V21.8608H143.328C143.566 21.3835 143.903 20.8764 144.338 20.3395C144.772 19.794 145.36 19.3295 146.102 18.946C146.843 18.554 147.789 18.358 148.94 18.358C150.457 18.358 151.825 18.7457 153.044 19.5213C154.271 20.2884 155.243 21.4261 155.958 22.9347C156.683 24.4347 157.045 26.2756 157.045 28.4574C157.045 30.6136 156.691 32.446 155.984 33.9545C155.277 35.4631 154.314 36.6136 153.095 37.4062C151.876 38.1989 150.495 38.5952 148.953 38.5952C147.828 38.5952 146.895 38.4077 146.153 38.0327C145.412 37.6577 144.815 37.206 144.363 36.6776C143.92 36.1406 143.575 35.6335 143.328 35.1562H143.059V38.25H138.508ZM143.047 28.4318C143.047 29.7017 143.225 30.8139 143.583 31.7685C143.95 32.723 144.474 33.4687 145.156 34.0057C145.846 34.5341 146.681 34.7983 147.662 34.7983C148.684 34.7983 149.541 34.5256 150.231 33.9801C150.922 33.4261 151.441 32.6719 151.791 31.7173C152.149 30.7543 152.328 29.6591 152.328 28.4318C152.328 27.2131 152.153 26.1307 151.804 25.1847C151.454 24.2386 150.934 23.4972 150.244 22.9602C149.554 22.4233 148.693 22.1548 147.662 22.1548C146.673 22.1548 145.833 22.4148 145.143 22.9347C144.453 23.4545 143.929 24.1832 143.571 25.1207C143.221 26.0582 143.047 27.1619 143.047 28.4318ZM169.545 38.6335C167.627 38.6335 165.965 38.2116 164.559 37.3679C163.153 36.5241 162.062 35.3437 161.286 33.8267C160.519 32.3097 160.136 30.5369 160.136 28.5085C160.136 26.4801 160.519 24.7031 161.286 23.1776C162.062 21.652 163.153 20.4673 164.559 19.6236C165.965 18.7798 167.627 18.358 169.545 18.358C171.462 18.358 173.124 18.7798 174.531 19.6236C175.937 20.4673 177.023 21.652 177.79 23.1776C178.566 24.7031 178.954 26.4801 178.954 28.5085C178.954 30.5369 178.566 32.3097 177.79 33.8267C177.023 35.3437 175.937 36.5241 174.531 37.3679C173.124 38.2116 171.462 38.6335 169.545 38.6335ZM169.57 34.9261C170.61 34.9261 171.479 34.6406 172.178 34.0696C172.877 33.4901 173.397 32.7145 173.738 31.7429C174.087 30.7713 174.262 29.6889 174.262 28.4957C174.262 27.294 174.087 26.2074 173.738 25.2358C173.397 24.2557 172.877 23.4759 172.178 22.8963C171.479 22.3168 170.61 22.027 169.57 22.027C168.505 22.027 167.619 22.3168 166.911 22.8963C166.212 23.4759 165.688 24.2557 165.339 25.2358C164.998 26.2074 164.827 27.294 164.827 28.4957C164.827 29.6889 164.998 30.7713 165.339 31.7429C165.688 32.7145 166.212 33.4901 166.911 34.0696C167.619 34.6406 168.505 34.9261 169.57 34.9261ZM185.928 18.6136L189.891 25.8622L193.918 18.6136H198.814L192.895 28.4318L198.916 38.25H194.045L189.891 31.1804L185.774 38.25H180.865L186.848 28.4318L181.018 18.6136H185.928Z" fill="black"/>
</svg>
