<svg width="184" height="67" viewBox="0 0 184 67" fill="none" xmlns="http://www.w3.org/2000/svg">
<path d="M70.046 17.574C70.718 17.694 71.288 18.048 71.756 18.636C72.224 19.224 72.458 19.89 72.458 20.634C72.458 21.27 72.29 21.846 71.954 22.362C71.63 22.866 71.156 23.268 70.532 23.568C69.908 23.856 69.182 24 68.354 24H63.35V11.49H68.12C68.972 11.49 69.704 11.634 70.316 11.922C70.928 12.21 71.39 12.6 71.702 13.092C72.014 13.572 72.17 14.112 72.17 14.712C72.17 15.432 71.978 16.032 71.594 16.512C71.21 16.992 70.694 17.346 70.046 17.574ZM65.402 16.746H67.94C68.612 16.746 69.134 16.596 69.506 16.296C69.89 15.984 70.082 15.54 70.082 14.964C70.082 14.4 69.89 13.962 69.506 13.65C69.134 13.326 68.612 13.164 67.94 13.164H65.402V16.746ZM68.174 22.326C68.87 22.326 69.416 22.158 69.812 21.822C70.208 21.486 70.406 21.018 70.406 20.418C70.406 19.806 70.196 19.32 69.776 18.96C69.356 18.6 68.798 18.42 68.102 18.42H65.402V22.326H68.174ZM78.9899 24.162C78.0539 24.162 77.2079 23.952 76.4519 23.532C75.6959 23.1 75.1019 22.5 74.6699 21.732C74.2379 20.952 74.0219 20.052 74.0219 19.032C74.0219 18.024 74.2439 17.13 74.6879 16.35C75.1319 15.57 75.7379 14.97 76.5059 14.55C77.2739 14.13 78.1319 13.92 79.0799 13.92C80.0279 13.92 80.8859 14.13 81.6539 14.55C82.4219 14.97 83.0279 15.57 83.4719 16.35C83.9159 17.13 84.1379 18.024 84.1379 19.032C84.1379 20.04 83.9099 20.934 83.4539 21.714C82.9979 22.494 82.3739 23.1 81.5819 23.532C80.8019 23.952 79.9379 24.162 78.9899 24.162ZM78.9899 22.38C79.5179 22.38 80.0099 22.254 80.4659 22.002C80.9339 21.75 81.3119 21.372 81.5999 20.868C81.8879 20.364 82.0319 19.752 82.0319 19.032C82.0319 18.312 81.8939 17.706 81.6179 17.214C81.3419 16.71 80.9759 16.332 80.5199 16.08C80.0639 15.828 79.5719 15.702 79.0439 15.702C78.5159 15.702 78.0239 15.828 77.5679 16.08C77.1239 16.332 76.7699 16.71 76.5059 17.214C76.2419 17.706 76.1099 18.312 76.1099 19.032C76.1099 20.1 76.3799 20.928 76.9199 21.516C77.4719 22.092 78.1619 22.38 78.9899 22.38ZM91.1704 13.92C91.9504 13.92 92.6464 14.082 93.2584 14.406C93.8824 14.73 94.3684 15.21 94.7164 15.846C95.0644 16.482 95.2384 17.25 95.2384 18.15V24H93.2044V18.456C93.2044 17.568 92.9824 16.89 92.5384 16.422C92.0944 15.942 91.4884 15.702 90.7204 15.702C89.9524 15.702 89.3404 15.942 88.8844 16.422C88.4404 16.89 88.2184 17.568 88.2184 18.456V24H86.1664V14.082H88.2184V15.216C88.5544 14.808 88.9804 14.49 89.4964 14.262C90.0244 14.034 90.5824 13.92 91.1704 13.92ZM102.86 13.92C103.64 13.92 104.336 14.082 104.948 14.406C105.572 14.73 106.058 15.21 106.406 15.846C106.754 16.482 106.928 17.25 106.928 18.15V24H104.894V18.456C104.894 17.568 104.672 16.89 104.228 16.422C103.784 15.942 103.178 15.702 102.41 15.702C101.642 15.702 101.03 15.942 100.574 16.422C100.13 16.89 99.9079 17.568 99.9079 18.456V24H97.8559V14.082H99.9079V15.216C100.244 14.808 100.67 14.49 101.186 14.262C101.714 14.034 102.272 13.92 102.86 13.92ZM110.589 12.768C110.217 12.768 109.905 12.642 109.653 12.39C109.401 12.138 109.275 11.826 109.275 11.454C109.275 11.082 109.401 10.77 109.653 10.518C109.905 10.266 110.217 10.14 110.589 10.14C110.949 10.14 111.255 10.266 111.507 10.518C111.759 10.77 111.885 11.082 111.885 11.454C111.885 11.826 111.759 12.138 111.507 12.39C111.255 12.642 110.949 12.768 110.589 12.768ZM111.597 14.082V24H109.545V14.082H111.597ZM123.381 18.798C123.381 19.17 123.357 19.506 123.309 19.806H115.731C115.791 20.598 116.085 21.234 116.613 21.714C117.141 22.194 117.789 22.434 118.557 22.434C119.661 22.434 120.441 21.972 120.897 21.048H123.111C122.811 21.96 122.265 22.71 121.473 23.298C120.693 23.874 119.721 24.162 118.557 24.162C117.609 24.162 116.757 23.952 116.001 23.532C115.257 23.1 114.669 22.5 114.237 21.732C113.817 20.952 113.607 20.052 113.607 19.032C113.607 18.012 113.811 17.118 114.219 16.35C114.639 15.57 115.221 14.97 115.965 14.55C116.721 14.13 117.585 13.92 118.557 13.92C119.493 13.92 120.327 14.124 121.059 14.532C121.791 14.94 122.361 15.516 122.769 16.26C123.177 16.992 123.381 17.838 123.381 18.798ZM121.239 18.15C121.227 17.394 120.957 16.788 120.429 16.332C119.901 15.876 119.247 15.648 118.467 15.648C117.759 15.648 117.153 15.876 116.649 16.332C116.145 16.776 115.845 17.382 115.749 18.15H121.239ZM139.131 15.09C138.807 14.466 138.357 13.998 137.781 13.686C137.205 13.362 136.539 13.2 135.783 13.2C134.955 13.2 134.217 13.386 133.569 13.758C132.921 14.13 132.411 14.658 132.039 15.342C131.679 16.026 131.499 16.818 131.499 17.718C131.499 18.618 131.679 19.416 132.039 20.112C132.411 20.796 132.921 21.324 133.569 21.696C134.217 22.068 134.955 22.254 135.783 22.254C136.899 22.254 137.805 21.942 138.501 21.318C139.197 20.694 139.623 19.848 139.779 18.78H135.081V17.142H141.975V18.744C141.843 19.716 141.495 20.61 140.931 21.426C140.379 22.242 139.653 22.896 138.753 23.388C137.865 23.868 136.875 24.108 135.783 24.108C134.607 24.108 133.533 23.838 132.561 23.298C131.589 22.746 130.815 21.984 130.239 21.012C129.675 20.04 129.393 18.942 129.393 17.718C129.393 16.494 129.675 15.396 130.239 14.424C130.815 13.452 131.589 12.696 132.561 12.156C133.545 11.604 134.619 11.328 135.783 11.328C137.115 11.328 138.297 11.658 139.329 12.318C140.373 12.966 141.129 13.89 141.597 15.09H139.131ZM146.05 15.522C146.35 15.018 146.746 14.628 147.238 14.352C147.742 14.064 148.336 13.92 149.02 13.92V16.044H148.498C147.694 16.044 147.082 16.248 146.662 16.656C146.254 17.064 146.05 17.772 146.05 18.78V24H143.998V14.082H146.05V15.522ZM159.997 18.798C159.997 19.17 159.973 19.506 159.925 19.806H152.347C152.407 20.598 152.701 21.234 153.229 21.714C153.757 22.194 154.405 22.434 155.173 22.434C156.277 22.434 157.057 21.972 157.513 21.048H159.727C159.427 21.96 158.881 22.71 158.089 23.298C157.309 23.874 156.337 24.162 155.173 24.162C154.225 24.162 153.373 23.952 152.617 23.532C151.873 23.1 151.285 22.5 150.853 21.732C150.433 20.952 150.223 20.052 150.223 19.032C150.223 18.012 150.427 17.118 150.835 16.35C151.255 15.57 151.837 14.97 152.581 14.55C153.337 14.13 154.201 13.92 155.173 13.92C156.109 13.92 156.943 14.124 157.675 14.532C158.407 14.94 158.977 15.516 159.385 16.26C159.793 16.992 159.997 17.838 159.997 18.798ZM157.855 18.15C157.843 17.394 157.573 16.788 157.045 16.332C156.517 15.876 155.863 15.648 155.083 15.648C154.375 15.648 153.769 15.876 153.265 16.332C152.761 16.776 152.461 17.382 152.365 18.15H157.855ZM171.106 18.798C171.106 19.17 171.082 19.506 171.034 19.806H163.456C163.516 20.598 163.81 21.234 164.338 21.714C164.866 22.194 165.514 22.434 166.282 22.434C167.386 22.434 168.166 21.972 168.622 21.048H170.836C170.536 21.96 169.99 22.71 169.198 23.298C168.418 23.874 167.446 24.162 166.282 24.162C165.334 24.162 164.482 23.952 163.726 23.532C162.982 23.1 162.394 22.5 161.962 21.732C161.542 20.952 161.332 20.052 161.332 19.032C161.332 18.012 161.536 17.118 161.944 16.35C162.364 15.57 162.946 14.97 163.69 14.55C164.446 14.13 165.31 13.92 166.282 13.92C167.218 13.92 168.052 14.124 168.784 14.532C169.516 14.94 170.086 15.516 170.494 16.26C170.902 16.992 171.106 17.838 171.106 18.798ZM168.964 18.15C168.952 17.394 168.682 16.788 168.154 16.332C167.626 15.876 166.972 15.648 166.192 15.648C165.484 15.648 164.878 15.876 164.374 16.332C163.87 16.776 163.57 17.382 163.474 18.15H168.964ZM178.129 13.92C178.909 13.92 179.605 14.082 180.217 14.406C180.841 14.73 181.327 15.21 181.675 15.846C182.023 16.482 182.197 17.25 182.197 18.15V24H180.163V18.456C180.163 17.568 179.941 16.89 179.497 16.422C179.053 15.942 178.447 15.702 177.679 15.702C176.911 15.702 176.299 15.942 175.843 16.422C175.399 16.89 175.177 17.568 175.177 18.456V24H173.125V14.082H175.177V15.216C175.513 14.808 175.939 14.49 176.455 14.262C176.983 14.034 177.541 13.92 178.129 13.92Z" fill="#1C1C1C"/>
<path d="M65.576 44.084C65.024 44.084 64.528 43.988 64.088 43.796C63.656 43.596 63.316 43.324 63.068 42.98C62.82 42.628 62.692 42.224 62.684 41.768H63.848C63.888 42.16 64.048 42.492 64.328 42.764C64.616 43.028 65.032 43.16 65.576 43.16C66.096 43.16 66.504 43.032 66.8 42.776C67.104 42.512 67.256 42.176 67.256 41.768C67.256 41.448 67.168 41.188 66.992 40.988C66.816 40.788 66.596 40.636 66.332 40.532C66.068 40.428 65.712 40.316 65.264 40.196C64.712 40.052 64.268 39.908 63.932 39.764C63.604 39.62 63.32 39.396 63.08 39.092C62.848 38.78 62.732 38.364 62.732 37.844C62.732 37.388 62.848 36.984 63.08 36.632C63.312 36.28 63.636 36.008 64.052 35.816C64.476 35.624 64.96 35.528 65.504 35.528C66.288 35.528 66.928 35.724 67.424 36.116C67.928 36.508 68.212 37.028 68.276 37.676H67.076C67.036 37.356 66.868 37.076 66.572 36.836C66.276 36.588 65.884 36.464 65.396 36.464C64.94 36.464 64.568 36.584 64.28 36.824C63.992 37.056 63.848 37.384 63.848 37.808C63.848 38.112 63.932 38.36 64.1 38.552C64.276 38.744 64.488 38.892 64.736 38.996C64.992 39.092 65.348 39.204 65.804 39.332C66.356 39.484 66.8 39.636 67.136 39.788C67.472 39.932 67.76 40.16 68 40.472C68.24 40.776 68.36 41.192 68.36 41.72C68.36 42.128 68.252 42.512 68.036 42.872C67.82 43.232 67.5 43.524 67.076 43.748C66.652 43.972 66.152 44.084 65.576 44.084ZM69.559 40.688C69.559 40.016 69.695 39.428 69.967 38.924C70.239 38.412 70.611 38.016 71.083 37.736C71.563 37.456 72.095 37.316 72.679 37.316C73.255 37.316 73.755 37.44 74.179 37.688C74.603 37.936 74.919 38.248 75.127 38.624V37.424H76.231V44H75.127V42.776C74.911 43.16 74.587 43.48 74.155 43.736C73.731 43.984 73.235 44.108 72.667 44.108C72.083 44.108 71.555 43.964 71.083 43.676C70.611 43.388 70.239 42.984 69.967 42.464C69.695 41.944 69.559 41.352 69.559 40.688ZM75.127 40.7C75.127 40.204 75.027 39.772 74.827 39.404C74.627 39.036 74.355 38.756 74.011 38.564C73.675 38.364 73.303 38.264 72.895 38.264C72.487 38.264 72.115 38.36 71.779 38.552C71.443 38.744 71.175 39.024 70.975 39.392C70.775 39.76 70.675 40.192 70.675 40.688C70.675 41.192 70.775 41.632 70.975 42.008C71.175 42.376 71.443 42.66 71.779 42.86C72.115 43.052 72.487 43.148 72.895 43.148C73.303 43.148 73.675 43.052 74.011 42.86C74.355 42.66 74.627 42.376 74.827 42.008C75.027 41.632 75.127 41.196 75.127 40.7ZM81.2803 37.304C82.0803 37.304 82.7283 37.548 83.2243 38.036C83.7203 38.516 83.9683 39.212 83.9683 40.124V44H82.8883V40.28C82.8883 39.624 82.7243 39.124 82.3963 38.78C82.0683 38.428 81.6203 38.252 81.0523 38.252C80.4763 38.252 80.0163 38.432 79.6723 38.792C79.3363 39.152 79.1683 39.676 79.1683 40.364V44H78.0763V37.424H79.1683V38.36C79.3843 38.024 79.6763 37.764 80.0443 37.58C80.4203 37.396 80.8323 37.304 81.2803 37.304ZM93.1393 39.692C93.4433 39.74 93.7193 39.864 93.9673 40.064C94.2233 40.264 94.4233 40.512 94.5673 40.808C94.7193 41.104 94.7953 41.42 94.7953 41.756C94.7953 42.18 94.6873 42.564 94.4713 42.908C94.2553 43.244 93.9393 43.512 93.5233 43.712C93.1153 43.904 92.6313 44 92.0713 44H88.9513V35.636H91.9513C92.5193 35.636 93.0033 35.732 93.4033 35.924C93.8033 36.108 94.1033 36.36 94.3033 36.68C94.5033 37 94.6033 37.36 94.6033 37.76C94.6033 38.256 94.4673 38.668 94.1953 38.996C93.9313 39.316 93.5793 39.548 93.1393 39.692ZM90.0433 39.248H91.8793C92.3913 39.248 92.7873 39.128 93.0673 38.888C93.3473 38.648 93.4873 38.316 93.4873 37.892C93.4873 37.468 93.3473 37.136 93.0673 36.896C92.7873 36.656 92.3833 36.536 91.8553 36.536H90.0433V39.248ZM91.9753 43.1C92.5193 43.1 92.9433 42.972 93.2473 42.716C93.5513 42.46 93.7033 42.104 93.7033 41.648C93.7033 41.184 93.5433 40.82 93.2233 40.556C92.9033 40.284 92.4753 40.148 91.9393 40.148H90.0433V43.1H91.9753ZM102.311 40.46C102.311 40.668 102.299 40.888 102.275 41.12H97.0187C97.0587 41.768 97.2787 42.276 97.6787 42.644C98.0867 43.004 98.5787 43.184 99.1547 43.184C99.6267 43.184 100.019 43.076 100.331 42.86C100.651 42.636 100.875 42.34 101.003 41.972H102.179C102.003 42.604 101.651 43.12 101.123 43.52C100.595 43.912 99.9387 44.108 99.1547 44.108C98.5307 44.108 97.9707 43.968 97.4747 43.688C96.9867 43.408 96.6027 43.012 96.3227 42.5C96.0427 41.98 95.9027 41.38 95.9027 40.7C95.9027 40.02 96.0387 39.424 96.3107 38.912C96.5827 38.4 96.9627 38.008 97.4507 37.736C97.9467 37.456 98.5147 37.316 99.1547 37.316C99.7787 37.316 100.331 37.452 100.811 37.724C101.291 37.996 101.659 38.372 101.915 38.852C102.179 39.324 102.311 39.86 102.311 40.46ZM101.183 40.232C101.183 39.816 101.091 39.46 100.907 39.164C100.723 38.86 100.471 38.632 100.151 38.48C99.8387 38.32 99.4907 38.24 99.1067 38.24C98.5547 38.24 98.0827 38.416 97.6907 38.768C97.3067 39.12 97.0867 39.608 97.0307 40.232H101.183ZM104.844 38.492C105.036 38.116 105.308 37.824 105.66 37.616C106.02 37.408 106.456 37.304 106.968 37.304V38.432H106.68C105.456 38.432 104.844 39.096 104.844 40.424V44H103.752V37.424H104.844V38.492ZM111.433 37.304C112.233 37.304 112.881 37.548 113.377 38.036C113.873 38.516 114.121 39.212 114.121 40.124V44H113.041V40.28C113.041 39.624 112.877 39.124 112.549 38.78C112.221 38.428 111.773 38.252 111.205 38.252C110.629 38.252 110.169 38.432 109.825 38.792C109.489 39.152 109.321 39.676 109.321 40.364V44H108.229V37.424H109.321V38.36C109.537 38.024 109.829 37.764 110.197 37.58C110.573 37.396 110.985 37.304 111.433 37.304ZM115.496 40.688C115.496 40.016 115.632 39.428 115.904 38.924C116.176 38.412 116.548 38.016 117.02 37.736C117.5 37.456 118.032 37.316 118.616 37.316C119.192 37.316 119.692 37.44 120.116 37.688C120.54 37.936 120.856 38.248 121.064 38.624V37.424H122.168V44H121.064V42.776C120.848 43.16 120.524 43.48 120.092 43.736C119.668 43.984 119.172 44.108 118.604 44.108C118.02 44.108 117.492 43.964 117.02 43.676C116.548 43.388 116.176 42.984 115.904 42.464C115.632 41.944 115.496 41.352 115.496 40.688ZM121.064 40.7C121.064 40.204 120.964 39.772 120.764 39.404C120.564 39.036 120.292 38.756 119.948 38.564C119.612 38.364 119.24 38.264 118.832 38.264C118.424 38.264 118.052 38.36 117.716 38.552C117.38 38.744 117.112 39.024 116.912 39.392C116.712 39.76 116.612 40.192 116.612 40.688C116.612 41.192 116.712 41.632 116.912 42.008C117.112 42.376 117.38 42.66 117.716 42.86C118.052 43.052 118.424 43.148 118.832 43.148C119.24 43.148 119.612 43.052 119.948 42.86C120.292 42.66 120.564 42.376 120.764 42.008C120.964 41.632 121.064 41.196 121.064 40.7ZM125.106 38.492C125.298 38.116 125.57 37.824 125.922 37.616C126.282 37.408 126.718 37.304 127.23 37.304V38.432H126.942C125.718 38.432 125.106 39.096 125.106 40.424V44H124.014V37.424H125.106V38.492ZM128.082 40.688C128.082 40.016 128.218 39.428 128.49 38.924C128.762 38.412 129.134 38.016 129.606 37.736C130.086 37.456 130.622 37.316 131.214 37.316C131.726 37.316 132.202 37.436 132.642 37.676C133.082 37.908 133.418 38.216 133.65 38.6V35.12H134.754V44H133.65V42.764C133.434 43.156 133.114 43.48 132.69 43.736C132.266 43.984 131.77 44.108 131.202 44.108C130.618 44.108 130.086 43.964 129.606 43.676C129.134 43.388 128.762 42.984 128.49 42.464C128.218 41.944 128.082 41.352 128.082 40.688ZM133.65 40.7C133.65 40.204 133.55 39.772 133.35 39.404C133.15 39.036 132.878 38.756 132.534 38.564C132.198 38.364 131.826 38.264 131.418 38.264C131.01 38.264 130.638 38.36 130.302 38.552C129.966 38.744 129.698 39.024 129.498 39.392C129.298 39.76 129.198 40.192 129.198 40.688C129.198 41.192 129.298 41.632 129.498 42.008C129.698 42.376 129.966 42.66 130.302 42.86C130.638 43.052 131.01 43.148 131.418 43.148C131.826 43.148 132.198 43.052 132.534 42.86C132.878 42.66 133.15 42.376 133.35 42.008C133.55 41.632 133.65 41.196 133.65 40.7ZM137.164 36.356C136.956 36.356 136.78 36.284 136.636 36.14C136.492 35.996 136.42 35.82 136.42 35.612C136.42 35.404 136.492 35.228 136.636 35.084C136.78 34.94 136.956 34.868 137.164 34.868C137.364 34.868 137.532 34.94 137.668 35.084C137.812 35.228 137.884 35.404 137.884 35.612C137.884 35.82 137.812 35.996 137.668 36.14C137.532 36.284 137.364 36.356 137.164 36.356ZM137.692 37.424V44H136.6V37.424H137.692ZM142.757 37.304C143.557 37.304 144.205 37.548 144.701 38.036C145.197 38.516 145.445 39.212 145.445 40.124V44H144.365V40.28C144.365 39.624 144.201 39.124 143.873 38.78C143.545 38.428 143.097 38.252 142.529 38.252C141.953 38.252 141.493 38.432 141.149 38.792C140.813 39.152 140.645 39.676 140.645 40.364V44H139.553V37.424H140.645V38.36C140.861 38.024 141.153 37.764 141.521 37.58C141.897 37.396 142.309 37.304 142.757 37.304ZM150.097 44.108C149.481 44.108 148.921 43.968 148.417 43.688C147.921 43.408 147.529 43.012 147.241 42.5C146.961 41.98 146.821 41.38 146.821 40.7C146.821 40.028 146.965 39.436 147.253 38.924C147.549 38.404 147.949 38.008 148.453 37.736C148.957 37.456 149.521 37.316 150.145 37.316C150.769 37.316 151.333 37.456 151.837 37.736C152.341 38.008 152.737 38.4 153.025 38.912C153.321 39.424 153.469 40.02 153.469 40.7C153.469 41.38 153.317 41.98 153.013 42.5C152.717 43.012 152.313 43.408 151.801 43.688C151.289 43.968 150.721 44.108 150.097 44.108ZM150.097 43.148C150.489 43.148 150.857 43.056 151.201 42.872C151.545 42.688 151.821 42.412 152.029 42.044C152.245 41.676 152.353 41.228 152.353 40.7C152.353 40.172 152.249 39.724 152.041 39.356C151.833 38.988 151.561 38.716 151.225 38.54C150.889 38.356 150.525 38.264 150.133 38.264C149.733 38.264 149.365 38.356 149.029 38.54C148.701 38.716 148.437 38.988 148.237 39.356C148.037 39.724 147.937 40.172 147.937 40.7C147.937 41.236 148.033 41.688 148.225 42.056C148.425 42.424 148.689 42.7 149.017 42.884C149.345 43.06 149.705 43.148 150.097 43.148ZM156.032 42.488L154.688 45.716H153.956L154.832 42.488H156.032ZM62.516 57.812C62.516 56.996 62.7 56.264 63.068 55.616C63.436 54.96 63.936 54.448 64.568 54.08C65.208 53.712 65.916 53.528 66.692 53.528C67.604 53.528 68.4 53.748 69.08 54.188C69.76 54.628 70.256 55.252 70.568 56.06H69.26C69.028 55.556 68.692 55.168 68.252 54.896C67.82 54.624 67.3 54.488 66.692 54.488C66.108 54.488 65.584 54.624 65.12 54.896C64.656 55.168 64.292 55.556 64.028 56.06C63.764 56.556 63.632 57.14 63.632 57.812C63.632 58.476 63.764 59.06 64.028 59.564C64.292 60.06 64.656 60.444 65.12 60.716C65.584 60.988 66.108 61.124 66.692 61.124C67.3 61.124 67.82 60.992 68.252 60.728C68.692 60.456 69.028 60.068 69.26 59.564H70.568C70.256 60.364 69.76 60.984 69.08 61.424C68.4 61.856 67.604 62.072 66.692 62.072C65.916 62.072 65.208 61.892 64.568 61.532C63.936 61.164 63.436 60.656 63.068 60.008C62.7 59.36 62.516 58.628 62.516 57.812ZM77.1375 60.14H73.4895L72.8175 62H71.6655L74.6895 53.684H75.9495L78.9615 62H77.8095L77.1375 60.14ZM76.8255 59.252L75.3135 55.028L73.8015 59.252H76.8255Z" fill="#77838F"/>
<g clip-path="url(#clip0_134_22055)">
<path d="M16 14.7941L17.2749 15.174C17.2924 9.14617 23.7412 4.52696 29.6255 7.33408C32.6887 8.79531 34.5404 12.0605 34.8048 15.25L36 14.7182C35.6589 7.14255 25.8316 2.16544 19.5857 7.43749C18.5688 8.29578 17.774 9.30351 17.1758 10.4636C16.5002 11.7738 16.0658 13.3325 16 14.7941Z" fill="#31475F"/>
<path d="M27.9398 5.25L28 5.45004L27.9398 5.25ZM23 5.65001L23.0904 6.25L23 5.65001Z" fill="#B6DFEB"/>
<path d="M23 5.25L23.0877 6.25L23 5.25ZM27.9123 5.25L28 6.25L27.9123 5.25Z" fill="#47BFA9"/>
<path d="M27.9469 5.25L28 5.50004L27.9469 5.25ZM23 5.99996L23.0531 6.25L23 5.99996Z" fill="#B6DFEB"/>
<path d="M30.9203 6.25L31 6.75L30.9203 6.25ZM20 6.75L20.0797 7.25L20 6.75ZM23.0822 6.91665L23.1352 7.08335L23.0822 6.91665ZM27.971 6.75L28.0507 7.25L27.971 6.75Z" fill="#B6DFEB"/>
<path d="M30.9214 6.25L31 6.75L30.9214 6.25ZM20 6.75L20.0786 7.25L20 6.75Z" fill="#B6DFEB"/>
<path d="M32.9218 7.25L33 7.75L32.9218 7.25ZM19 7.75L19.0782 8.25L19 7.75ZM20.8771 7.75L20.9553 8.25L20.8771 7.75ZM31.1229 7.75L31.2011 8.25L31.1229 7.75Z" fill="#47BFA9"/>
<path d="M32.6791 7.25L32.7594 7.45L32.6791 7.25ZM18.2406 7.45L18.3209 7.65L18.2406 7.45ZM20.1658 7.45L20.246 7.65L20.1658 7.45ZM30.8342 7.45L30.9144 7.65L30.8342 7.45ZM32.7594 7.45L32.8396 7.65L32.7594 7.45ZM18.1604 7.65L18.2406 7.85L18.1604 7.65ZM20.0856 7.65L20.1658 7.85L20.0856 7.65ZM30.9144 7.65L30.9947 7.85L30.9144 7.65ZM32.8396 7.65L32.9198 7.85L32.8396 7.65ZM18.0802 7.85L18.1604 8.05L18.0802 7.85ZM20.0053 7.85L20.0856 8.05L20.0053 7.85ZM30.9947 7.85L31.0749 8.05L30.9947 7.85ZM32.9198 7.85L33 8.05L32.9198 7.85ZM18 8.05L18.0802 8.25L18 8.05Z" fill="#B6DFEB"/>
<path d="M19 8.25L19.0855 9.25L19 8.25ZM31.9145 8.25L32 9.25L31.9145 8.25Z" fill="#47BFA9"/>
<path d="M33 8.25L34 9.25L33 8.25Z" fill="#B6DFEB"/>
<path d="M33.95 9.25L34 10.25L33.95 9.25ZM33 10.25L33.05 11.25L33 10.25Z" fill="#B6DFEB"/>
<path d="M18.4229 11.25L18.4978 11.75L18.4229 11.25ZM32.5022 11.25L32.5771 11.75L32.5022 11.25ZM17 11.75L17.0749 12.25L17 11.75ZM33.9251 11.75L34 12.25L33.9251 11.75Z" fill="#B6DFEB"/>
<path d="M16 12.4501L16.0265 12.6499L16 12.4501ZM33.5181 12.25L33.5975 12.55L33.5181 12.25ZM34.9735 12.4501L35 12.6499L34.9735 12.4501ZM17.3496 13.0502L17.3761 13.25L17.3496 13.0502Z" fill="#B6DFEB"/>
<path d="M5 14.25L5.98516 17.4816L8.01206 23.8715L8.75595 26.2218L9.14413 27.1745L11.1718 27.25H16.7824H36.4198H41.5496L43.4281 27.1745L43.764 26.2952L44.4052 23.9449L46.1482 17.5551L47 14.25C44.186 14.25 41.3047 14.6533 38.5038 14.8985C37.5446 14.9826 36.0673 14.8205 35.2176 15.2675C32.8903 16.492 30.7276 18.2352 28.5649 19.6935L26.8015 20.8687C26.5847 21.0148 26.2847 21.2888 26 21.2953C25.7138 21.3017 25.4167 21.024 25.1985 20.8815L23.4351 19.7371C21.2488 18.3094 19.0896 16.6911 16.7824 15.4347C15.8693 14.9375 14.2968 15.0675 13.2557 14.9721C10.537 14.723 7.73216 14.2503 5 14.25Z" fill="#49BFE4"/>
<path d="M35.8219 14.4168L35.8487 14.5832L35.8219 14.4168ZM42.9352 14.25V14.5H43.3364L42.9352 14.25ZM9 14.5V14.75H9.40113L9 14.5ZM17.1027 14.5V15.25H17.183L17.1027 14.5ZM34.4581 14.6668L34.4849 14.8332L34.4581 14.6668ZM41.9725 14.5V14.75H42.3737L41.9725 14.5ZM46.9732 14.6668L47 14.8332L46.9732 14.6668ZM9.80225 14.75V15H10.2034L9.80225 14.75Z" fill="#B6DFEB"/>
<path d="M41.5922 14.25V14.6786H42L41.5922 14.25ZM5 14.9645L5.02724 15.25L5 14.9645ZM10.6003 14.6786V15.1073H11.0081L10.6003 14.6786Z" fill="#B6DFEB"/>
<path d="M40.5055 14.25V14.5833H41L40.5055 14.25ZM11 14.5833V14.9167H11.4121L11 14.5833ZM39.5989 14.5833V14.9167H40.011L39.5989 14.5833ZM11.8242 14.9167V15.25H12.2363L11.8242 14.9167Z" fill="#B6DFEB"/>
<path d="M34.9645 15.25V15.5625H35.0439L34.9645 15.25ZM46.9735 15.3021L47 15.3541L46.9735 15.3021ZM6 15.3281L6.07935 15.4062L6 15.3281ZM17.6652 15.4844L17.7445 15.5625L17.6652 15.4844ZM6.10578 15.6146L6.13229 15.6666L6.10578 15.6146ZM17.8239 15.5625L17.9032 15.6406L17.8239 15.5625ZM46.8941 15.6146L46.9206 15.6666L46.8941 15.6146ZM17.9032 15.6406L17.9826 15.7188L17.9032 15.6406ZM34.7264 15.6406L34.8058 15.7188L34.7264 15.6406ZM18.1413 15.7969L18.2206 15.875L18.1413 15.7969ZM34.4884 15.7969L34.5677 15.875L34.4884 15.7969ZM6.15871 15.875L6.23806 15.9531L6.15871 15.875ZM34.409 15.875L34.4884 15.9531L34.409 15.875ZM46.8148 15.9271L46.8413 15.9791L46.8148 15.9271ZM18.3793 15.9531L18.4587 16.0312L18.3793 15.9531ZM18.4587 16.0312L18.5381 16.1094L18.4587 16.0312ZM34.1709 16.0312L34.2503 16.1094L34.1709 16.0312ZM6.26449 16.1615L6.29099 16.2135L6.26449 16.1615ZM34.0916 16.1094L34.1709 16.1875L34.0916 16.1094ZM18.6968 16.1875L18.7761 16.2656L18.6968 16.1875ZM46.7354 16.2396L46.7619 16.2916L46.7354 16.2396ZM33.8535 16.2656L33.9329 16.3438L33.8535 16.2656ZM18.9348 16.3438L19.0142 16.4219L18.9348 16.3438ZM6.31742 16.4219L6.39677 16.5L6.31742 16.4219ZM19.0142 16.4219L19.0935 16.5L19.0142 16.4219ZM33.6155 16.4219L33.6948 16.5L33.6155 16.4219ZM19.1729 16.5L19.2522 16.5781L19.1729 16.5ZM33.5361 16.5L33.6155 16.5781L33.5361 16.5ZM46.6561 16.5521L46.6826 16.6041L46.6561 16.5521ZM19.2522 16.5781L19.3316 16.6562L19.2522 16.5781ZM6.4232 16.7084L6.4497 16.7604L6.4232 16.7084ZM33.298 16.6562L33.3774 16.7344L33.298 16.6562ZM19.4903 16.7344L19.5697 16.8125L19.4903 16.7344ZM33.2187 16.7344L33.298 16.8125L33.2187 16.7344ZM19.5697 16.8125L19.649 16.8906L19.5697 16.8125ZM46.5767 16.8646L46.6032 16.9166L46.5767 16.8646ZM6.50255 16.9427L6.52906 16.9948L6.50255 16.9427ZM19.7284 16.8906L19.8077 16.9688L19.7284 16.8906ZM32.9806 16.8906L33.06 16.9688L32.9806 16.8906ZM19.8077 16.9688L19.8871 17.0469L19.8077 16.9688ZM32.7426 17.0469L32.8219 17.125L32.7426 17.0469ZM20.0458 17.125L20.1252 17.2031L20.0458 17.125ZM32.6632 17.125L32.7426 17.2031L32.6632 17.125ZM46.4974 17.1771L46.5239 17.2291L46.4974 17.1771ZM6.58191 17.2552L6.60841 17.3073L6.58191 17.2552ZM20.2839 17.2812L20.3632 17.3594L20.2839 17.2812ZM32.4251 17.2812L32.5045 17.3594L32.4251 17.2812ZM20.3632 17.3594L20.4426 17.4375L20.3632 17.3594ZM32.3458 17.3594L32.4251 17.4375L32.3458 17.3594ZM6.66126 17.4896L6.68777 17.5416L6.66126 17.4896ZM20.5219 17.4375L20.6013 17.5156L20.5219 17.4375ZM46.418 17.4896L46.4445 17.5416L46.418 17.4896ZM20.6013 17.5156L20.6806 17.5938L20.6013 17.5156ZM32.1077 17.5156L32.1871 17.5938L32.1077 17.5156ZM20.8393 17.6719L20.9187 17.75L20.8393 17.6719ZM31.8697 17.6719L31.949 17.75L31.8697 17.6719ZM6.71419 17.75L6.79355 17.8281L6.71419 17.75ZM20.9187 17.75L20.9981 17.8281L20.9187 17.75ZM31.7903 17.75L31.8697 17.8281L31.7903 17.75ZM46.3387 17.8021L46.3652 17.8541L46.3387 17.8021ZM21.0774 17.8281L21.1568 17.9062L21.0774 17.8281ZM21.1568 17.9062L21.2361 17.9844L21.1568 17.9062ZM31.5522 17.9062L31.6316 17.9844L31.5522 17.9062ZM6.81997 18.0365L6.84648 18.0885L6.81997 18.0365ZM31.4729 17.9844L31.5522 18.0625L31.4729 17.9844ZM21.3948 18.0625L21.4742 18.1406L21.3948 18.0625ZM46.2593 18.1146L46.2858 18.1666L46.2593 18.1146ZM21.4742 18.1406L21.5535 18.2188L21.4742 18.1406ZM31.2348 18.1406L31.3142 18.2188L31.2348 18.1406ZM21.6329 18.2188L21.7122 18.2969L21.6329 18.2188ZM6.8729 18.2969L6.95226 18.375L6.8729 18.2969ZM21.7122 18.2969L21.7916 18.375L21.7122 18.2969ZM30.9968 18.2969L31.0761 18.375L30.9968 18.2969ZM30.9174 18.375L30.9968 18.4531L30.9174 18.375ZM46.1799 18.4271L46.2065 18.4791L46.1799 18.4271ZM21.9503 18.4531L22.0297 18.5312L21.9503 18.4531ZM6.97868 18.5834L7.00519 18.6354L6.97868 18.5834ZM30.6793 18.5312L30.7587 18.6094L30.6793 18.5312ZM22.1884 18.6094L22.2677 18.6875L22.1884 18.6094ZM30.6 18.6094L30.6793 18.6875L30.6 18.6094ZM22.2677 18.6875L22.3471 18.7656L22.2677 18.6875ZM46.1006 18.7396L46.1271 18.7916L46.1006 18.7396ZM22.4264 18.7656L22.5058 18.8438L22.4264 18.7656ZM30.3619 18.7656L30.4413 18.8438L30.3619 18.7656ZM7.03161 18.8438L7.11097 18.9219L7.03161 18.8438ZM22.5058 18.8438L22.5851 18.9219L22.5058 18.8438ZM30.1239 18.9219L30.2032 19L30.1239 18.9219ZM22.7439 19L22.8232 19.0781L22.7439 19ZM30.0445 19L30.1239 19.0781L30.0445 19ZM46.0212 19.0521L46.0477 19.1041L46.0212 19.0521ZM7.13739 19.1302L7.1639 19.1823L7.13739 19.1302ZM22.8232 19.0781L22.9026 19.1562L22.8232 19.0781ZM22.9819 19.1562L23.0613 19.2344L22.9819 19.1562ZM29.8064 19.1562L29.8858 19.2344L29.8064 19.1562ZM23.0613 19.2344L23.1406 19.3125L23.0613 19.2344ZM29.7271 19.2344L29.8064 19.3125L29.7271 19.2344ZM7.21675 19.3646L7.24325 19.4166L7.21675 19.3646ZM45.9419 19.3646L45.9684 19.4166L45.9419 19.3646ZM23.2993 19.3906L23.3787 19.4688L23.2993 19.3906ZM29.489 19.3906L29.5684 19.4688L29.489 19.3906ZM23.5374 19.5469L23.6168 19.625L23.5374 19.5469ZM29.251 19.5469L29.3303 19.625L29.251 19.5469ZM7.2961 19.6771L7.32261 19.7291L7.2961 19.6771ZM23.6168 19.625L23.6961 19.7031L23.6168 19.625ZM29.1716 19.625L29.251 19.7031L29.1716 19.625ZM45.8625 19.6771L45.889 19.7291L45.8625 19.6771ZM23.8548 19.7812L23.9342 19.8594L23.8548 19.7812ZM28.9335 19.7812L29.0129 19.8594L28.9335 19.7812ZM7.37546 19.9115L7.40196 19.9635L7.37546 19.9115ZM28.8542 19.8594L28.9335 19.9375L28.8542 19.8594ZM24.0929 19.9375L24.1722 20.0156L24.0929 19.9375ZM45.7832 19.9896L45.8097 20.0416L45.7832 19.9896ZM24.1722 20.0156L24.2516 20.0938L24.1722 20.0156ZM28.6161 20.0156L28.6955 20.0938L28.6161 20.0156ZM24.331 20.0938L24.4103 20.1719L24.331 20.0938ZM7.42839 20.1719L7.50774 20.25L7.42839 20.1719ZM24.4103 20.1719L24.4897 20.25L24.4103 20.1719ZM28.378 20.1719L28.4574 20.25L28.378 20.1719ZM28.2987 20.25L28.378 20.3281L28.2987 20.25ZM45.7038 20.3021L45.7303 20.3541L45.7038 20.3021ZM24.6484 20.3281L24.7277 20.4062L24.6484 20.3281ZM7.53417 20.4584L7.56067 20.5104L7.53417 20.4584ZM24.7277 20.4062L24.8071 20.4844L24.7277 20.4062ZM28.0606 20.4062L28.14 20.4844L28.0606 20.4062ZM24.8864 20.4844L24.9658 20.5625L24.8864 20.4844ZM27.9813 20.4844L28.0606 20.5625L27.9813 20.4844ZM24.9658 20.5625L25.0451 20.6406L24.9658 20.5625ZM45.6245 20.6146L45.651 20.6666L45.6245 20.6146ZM27.7432 20.6406L27.8226 20.7188L27.7432 20.6406ZM7.5871 20.7188L7.66645 20.7969L7.5871 20.7188ZM25.2039 20.7188L25.2832 20.7969L25.2039 20.7188ZM27.5051 20.7969L27.5845 20.875L27.5051 20.7969ZM25.4419 20.875L25.5213 20.9531L25.4419 20.875ZM27.4258 20.875L27.5051 20.9531L27.4258 20.875ZM45.5451 20.9271L45.5716 20.9791L45.5451 20.9271ZM7.69288 21.0052L7.71938 21.0573L7.69288 21.0052ZM25.5213 20.9531L25.6006 21.0312L25.5213 20.9531ZM25.68 21.0312L25.7593 21.1094L25.68 21.0312ZM27.1877 21.0312L27.2671 21.1094L27.1877 21.0312ZM25.7593 21.1094L25.8387 21.1875L25.7593 21.1094ZM27.1084 21.1094L27.1877 21.1875L27.1084 21.1094ZM7.77223 21.2396L7.79874 21.2916L7.77223 21.2396ZM45.4658 21.2396L45.4923 21.2916L45.4658 21.2396ZM25.9974 21.2656L26.0768 21.3438L25.9974 21.2656ZM26.8703 21.2656L26.9497 21.3438L26.8703 21.2656ZM26.0768 21.3438L26.1561 21.4219L26.0768 21.3438ZM26.2355 21.4219L26.3148 21.5L26.2355 21.4219ZM26.6322 21.4219L26.7116 21.5L26.6322 21.4219ZM7.85158 21.5521L7.87809 21.6041L7.85158 21.5521ZM26.3148 21.5L26.3942 21.5781L26.3148 21.5ZM26.5529 21.5L26.6322 21.5781L26.5529 21.5ZM45.3864 21.5521L45.4129 21.6041L45.3864 21.5521ZM7.93094 21.7865L7.95745 21.8385L7.93094 21.7865ZM45.307 21.8646L45.3335 21.9166L45.307 21.8646ZM7.98387 22.0469L8.06322 22.125L7.98387 22.0469ZM45.2277 22.1771L45.2542 22.2291L45.2277 22.1771ZM8.08965 22.3334L8.11615 22.3854L8.08965 22.3334ZM45.1483 22.4896L45.1748 22.5416L45.1483 22.4896ZM8.14258 22.5938L8.22193 22.6719L8.14258 22.5938ZM45.069 22.8021L45.0955 22.8541L45.069 22.8021ZM8.24836 22.8802L8.27486 22.9323L8.24836 22.8802ZM44.9896 23.1146L45.0161 23.1666L44.9896 23.1146ZM8.30129 23.1406L8.38064 23.2188L8.30129 23.1406ZM8.40707 23.4271L8.43357 23.4791L8.40707 23.4271ZM44.9103 23.4271L44.9368 23.4791L44.9103 23.4271ZM8.48642 23.6615L8.51293 23.7135L8.48642 23.6615ZM44.8309 23.7396L44.8574 23.7916L44.8309 23.7396ZM8.56578 23.974L8.59228 24.026L8.56578 23.974ZM44.7516 24.0521L44.7781 24.1041L44.7516 24.0521ZM8.64513 24.2084L8.67164 24.2604L8.64513 24.2084ZM44.6722 24.3646L44.6987 24.4166L44.6722 24.3646ZM8.69806 24.4688L8.77742 24.5469L8.69806 24.4688ZM44.5928 24.6771L44.6194 24.7291L44.5928 24.6771ZM8.80384 24.7552L8.83035 24.8073L8.80384 24.7552ZM44.5135 24.9896L44.54 25.0416L44.5135 24.9896ZM8.85677 25.0156L8.93613 25.0938L8.85677 25.0156ZM8.96255 25.3021L8.98906 25.3541L8.96255 25.3021ZM44.4341 25.3021L44.4606 25.3541L44.4341 25.3021ZM9.01548 25.5625L9.09484 25.6406L9.01548 25.5625ZM44.3548 25.6146L44.3813 25.6666L44.3548 25.6146ZM9.12126 25.849L9.14777 25.901L9.12126 25.849ZM44.2754 25.9271L44.3019 25.9791L44.2754 25.9271ZM9.20062 26.0834L9.22712 26.1354L9.20062 26.0834ZM44.1961 26.2396L44.2226 26.2916L44.1961 26.2396ZM9.27997 26.3959L9.30648 26.4479L9.27997 26.3959ZM44.1167 26.5521L44.1432 26.6041L44.1167 26.5521ZM9.35933 26.6302L9.38583 26.6823L9.35933 26.6302ZM44.0374 26.8646L44.0639 26.9166L44.0374 26.8646ZM9.41226 26.8906L9.49161 26.9688L9.41226 26.8906ZM9.51804 27.1771L9.54454 27.2291L9.51804 27.1771ZM43.958 27.1771L43.9845 27.2291L43.958 27.1771ZM9.57097 27.4375L9.65032 27.5156L9.57097 27.4375ZM43.8787 27.4896L43.9052 27.5416L43.8787 27.4896ZM9.67674 27.724L9.70325 27.776L9.67674 27.724ZM43.7729 27.75L43.8522 27.8281L43.7729 27.75ZM9.72967 27.8281V27.9062H43.7729C42.9771 27.5775 41.622 27.8281 40.7574 27.8281H33.8535H9.72967ZM10.4439 30.1719L10.5232 30.25L10.4439 30.1719Z" fill="#B6DFEB"/>
<path d="M9 30.25L11.2876 37.3245L13.4563 44.1011C14.2329 43.743 14.7821 42.5768 15.2835 41.9415C16.3684 40.5666 17.3959 39.1548 18.4672 37.7713C19.0271 37.0482 19.7931 36.2905 20.1408 35.4628L24.9272 37.6776L34.9951 42.3322L39.2039 44.25L42.0001 34.0479L43 30.25H9Z" fill="#47BFA9"/>
<path d="M42.9725 30.25L43 30.2998L42.9725 30.25ZM9 30.3247L9.02754 30.3745L9 30.3247ZM9.055 30.4991V30.7233H9.13746L9.055 30.4991ZM42.8625 30.4991V30.7233H42.945L42.8625 30.4991ZM9.13746 30.7233V30.9475H9.21991L9.13746 30.7233ZM42.7801 30.798V31.0222H42.8625L42.7801 30.798ZM9.21991 31.0222V31.2464H9.30237L9.21991 31.0222ZM42.6976 31.097V31.3212H42.7801L42.6976 31.097ZM9.30237 31.2464V31.4706H9.38483L9.30237 31.2464ZM42.6152 31.3959V31.6201H42.6976L42.6152 31.3959ZM9.41229 31.5952L9.43983 31.645L9.41229 31.5952ZM42.5327 31.6948V31.919H42.6152L42.5327 31.6948ZM9.46729 31.7696V31.9938H9.54974L9.46729 31.7696ZM42.4503 31.9938V32.218H42.5327L42.4503 31.9938ZM9.5772 32.1183L9.60474 32.1681L9.5772 32.1183ZM9.6322 32.2927V32.5169H9.71466L9.6322 32.2927ZM42.3678 32.2927V32.5169H42.4503L42.3678 32.2927ZM9.74212 32.6415L9.76966 32.6912L9.74212 32.6415ZM42.2853 32.5916V32.8158H42.3678L42.2853 32.5916ZM9.79712 32.8158V33.04H9.87957L9.79712 32.8158ZM42.2029 32.8905V33.1147H42.2853L42.2029 32.8905ZM9.87957 33.04V33.2642H9.96203L9.87957 33.04ZM42.1204 33.1895V33.4137H42.2029L42.1204 33.1895ZM9.98949 33.3888L10.017 33.4386L9.98949 33.3888ZM42.038 33.4884V33.7126H42.1204L42.038 33.4884ZM10.0445 33.5631V33.7873H10.1269L10.0445 33.5631ZM41.9555 33.7873V34.0115H42.038L41.9555 33.7873ZM10.1544 33.9119L10.1819 33.9617L10.1544 33.9119ZM10.2094 34.0863V34.3105H10.2919L10.2094 34.0863ZM41.8731 34.0863V34.3105H41.9555L41.8731 34.0863ZM10.3193 34.4351L10.3469 34.4848L10.3193 34.4351ZM41.8181 34.5098L41.8456 34.5596L41.8181 34.5098ZM10.3743 34.6094V34.8336H10.4568L10.3743 34.6094ZM41.7356 34.8087L41.7631 34.8585L41.7356 34.8087ZM10.4842 34.9582L10.5118 35.008L10.4842 34.9582ZM41.6531 35.1077L41.6807 35.1574L41.6531 35.1077ZM10.5392 35.1325V35.3567H10.6217L10.5392 35.1325ZM10.6217 35.3567V35.5809H10.7041L10.6217 35.3567ZM41.5707 35.4066L41.5982 35.4564L41.5707 35.4066ZM20.1043 35.4315V35.5809L20.2692 35.4315H20.1043ZM20.3517 35.5062L20.4341 35.5809L20.3517 35.5062ZM20.0218 35.5809L20.1043 35.6557L20.0218 35.5809ZM20.5166 35.5809L20.599 35.6557L20.5166 35.5809ZM10.7316 35.7055L10.7591 35.7553L10.7316 35.7055ZM19.9668 35.7055L19.9944 35.7553L19.9668 35.7055ZM20.6815 35.6557L20.764 35.7304L20.6815 35.6557ZM41.4882 35.7055L41.5158 35.7553L41.4882 35.7055ZM20.8464 35.7304L20.9289 35.8051L20.8464 35.7304ZM19.8569 35.8051L19.9394 35.8799L19.8569 35.8051ZM21.0113 35.8051L21.0938 35.8799L21.0113 35.8051ZM10.7866 35.8799V36.1041H10.8691L10.7866 35.8799ZM19.8019 35.9297L19.8295 35.9795L19.8019 35.9297ZM21.1762 35.8799L21.2587 35.9546L21.1762 35.8799ZM21.3412 35.9546L21.4236 36.0293L21.3412 35.9546ZM41.4058 36.0045L41.4333 36.0542L41.4058 36.0045ZM19.692 36.0293L19.7745 36.1041L19.692 36.0293ZM21.4786 36.0542L21.5335 36.0792L21.4786 36.0542ZM19.6096 36.1041L19.692 36.1788L19.6096 36.1041ZM21.5885 36.1041L21.671 36.1788L21.5885 36.1041ZM10.8965 36.2287L10.9241 36.2784L10.8965 36.2287ZM21.7534 36.1788L21.8359 36.2535L21.7534 36.1788ZM19.5271 36.2535L19.6096 36.3283L19.5271 36.2535ZM21.9184 36.2535L22.0008 36.3283L21.9184 36.2535ZM41.3233 36.3034L41.3509 36.3532L41.3233 36.3034ZM19.4446 36.3283L19.5271 36.403L19.4446 36.3283ZM22.0833 36.3283L22.1657 36.403L22.0833 36.3283ZM10.9515 36.403V36.6272H11.034L10.9515 36.403ZM22.2482 36.403L22.3306 36.4777L22.2482 36.403ZM19.3622 36.4777L19.4446 36.5525L19.3622 36.4777ZM22.4131 36.4777L22.4956 36.5525L22.4131 36.4777ZM19.2797 36.5525L19.3622 36.6272L19.2797 36.5525ZM22.578 36.5525L22.6605 36.6272L22.578 36.5525ZM41.2409 36.6023L41.2684 36.6521L41.2409 36.6023ZM19.2247 36.6771L19.2523 36.7268L19.2247 36.6771ZM22.7429 36.6272L22.8254 36.7019L22.7429 36.6272ZM11.0614 36.7518L11.089 36.8016L11.0614 36.7518ZM22.9078 36.7019L22.9903 36.7767L22.9078 36.7019ZM19.1148 36.7767L19.1973 36.8514L19.1148 36.7767ZM23.0728 36.7767L23.1552 36.8514L23.0728 36.7767ZM19.0598 36.9013L19.0873 36.951L19.0598 36.9013ZM23.2377 36.8514L23.3201 36.9261L23.2377 36.8514ZM41.1584 36.9013L41.1859 36.951L41.1584 36.9013ZM11.1164 36.9261V37.1503H11.1989L11.1164 36.9261ZM23.4026 36.9261L23.4851 37.0009L23.4026 36.9261ZM18.9499 37.0009L19.0323 37.0756L18.9499 37.0009ZM23.5675 37.0009L23.65 37.0756L23.5675 37.0009ZM18.8674 37.0756L18.9499 37.1503L18.8674 37.0756ZM23.7324 37.0756L23.8149 37.1503L23.7324 37.0756ZM23.8973 37.1503L23.9798 37.2251L23.8973 37.1503ZM41.0759 37.2002L41.1035 37.25L41.0759 37.2002ZM11.2264 37.2749L11.2539 37.3247L11.2264 37.2749ZM18.785 37.2251L18.8674 37.2998L18.785 37.2251ZM24.0623 37.2251L24.1447 37.2998L24.0623 37.2251ZM18.7025 37.2998L18.785 37.3745L18.7025 37.2998ZM24.2272 37.2998L24.3096 37.3745L24.2272 37.2998ZM24.3646 37.3994L24.4195 37.4244L24.3646 37.3994ZM11.2814 37.4493V37.6735H11.3638L11.2814 37.4493ZM18.6201 37.4493L18.7025 37.524L18.6201 37.4493ZM24.4745 37.4493L24.557 37.524L24.4745 37.4493ZM40.9935 37.4991L41.021 37.5489L40.9935 37.4991ZM18.5376 37.524L18.6201 37.5987L18.5376 37.524ZM24.6395 37.524L24.7219 37.5987L24.6395 37.524ZM18.4826 37.6486L18.5101 37.6984L18.4826 37.6486ZM24.8044 37.5987L24.8868 37.6735L24.8044 37.5987ZM11.3638 37.6735V37.8977H11.4463L11.3638 37.6735ZM24.9693 37.6735L25.0517 37.7482L24.9693 37.6735ZM18.3727 37.7482L18.4551 37.8229L18.3727 37.7482ZM25.1342 37.7482L25.2167 37.8229L25.1342 37.7482ZM40.911 37.7981L40.9386 37.8478L40.911 37.7981ZM18.3177 37.8728L18.3452 37.9226L18.3177 37.8728ZM25.2991 37.8229L25.3816 37.8977L25.2991 37.8229ZM25.464 37.8977L25.5465 37.9724L25.464 37.8977ZM11.4737 38.0223L11.5013 38.072L11.4737 38.0223ZM18.2078 37.9724L18.2902 38.0471L18.2078 37.9724ZM25.6289 37.9724L25.7114 38.0471L25.6289 37.9724ZM18.1253 38.0471L18.2078 38.1219L18.1253 38.0471ZM25.7939 38.0471L25.8763 38.1219L25.7939 38.0471ZM40.8286 38.097L40.8561 38.1468L40.8286 38.097ZM25.9588 38.1219L26.0412 38.1966L25.9588 38.1219ZM11.5287 38.1966V38.4208H11.6112L11.5287 38.1966ZM18.0429 38.1966L18.1253 38.2713L18.0429 38.1966ZM26.1237 38.1966L26.2061 38.2713L26.1237 38.1966ZM17.9604 38.2713L18.0429 38.3461L17.9604 38.2713ZM26.2886 38.2713L26.3711 38.3461L26.2886 38.2713ZM26.4535 38.3461L26.536 38.4208L26.4535 38.3461ZM40.7461 38.3959L40.7737 38.4457L40.7461 38.3959ZM17.8779 38.4208L17.9604 38.4955L17.8779 38.4208ZM26.6184 38.4208L26.7009 38.4955L26.6184 38.4208ZM11.6386 38.5454L11.6662 38.5952L11.6386 38.5454ZM17.7955 38.4955L17.8779 38.5703L17.7955 38.4955ZM26.7833 38.4955L26.8658 38.5703L26.7833 38.4955ZM17.7405 38.6201L17.768 38.6699L17.7405 38.6201ZM26.9483 38.5703L27.0307 38.645L26.9483 38.5703ZM27.1132 38.645L27.1956 38.7197L27.1132 38.645ZM40.6637 38.6949L40.6912 38.7446L40.6637 38.6949ZM11.6936 38.7197V38.9439H11.7761L11.6936 38.7197ZM17.6306 38.7197L17.713 38.7945L17.6306 38.7197ZM27.2506 38.7446L27.3056 38.7696L27.2506 38.7446ZM17.5756 38.8443L17.6031 38.8941L17.5756 38.8443ZM27.3605 38.7945L27.443 38.8692L27.3605 38.7945ZM27.5255 38.8692L27.6079 38.9439L27.5255 38.8692ZM17.4657 38.9439L17.5481 39.0187L17.4657 38.9439ZM27.6904 38.9439L27.7728 39.0187L27.6904 38.9439ZM40.5812 38.9938L40.6087 39.0436L40.5812 38.9938ZM11.8036 39.0685L11.8311 39.1183L11.8036 39.0685ZM17.4107 39.0685L17.4382 39.1183L17.4107 39.0685ZM27.8553 39.0187L27.9378 39.0934L27.8553 39.0187ZM28.0202 39.0934L28.1027 39.1681L28.0202 39.0934ZM17.3007 39.1681L17.3832 39.2429L17.3007 39.1681ZM28.1851 39.1681L28.2676 39.2429L28.1851 39.1681ZM11.8586 39.2429V39.4671H11.941L11.8586 39.2429ZM17.2183 39.2429L17.3007 39.3176L17.2183 39.2429ZM28.35 39.2429L28.4325 39.3176L28.35 39.2429ZM40.4987 39.2927L40.5263 39.3425L40.4987 39.2927ZM28.515 39.3176L28.5974 39.3923L28.515 39.3176ZM17.1358 39.3923L17.2183 39.4671L17.1358 39.3923ZM28.6799 39.3923L28.7623 39.4671L28.6799 39.3923ZM17.0534 39.4671L17.1358 39.5418L17.0534 39.4671ZM28.8448 39.4671L28.9272 39.5418L28.8448 39.4671ZM11.9685 39.5917L11.996 39.6414L11.9685 39.5917ZM29.0097 39.5418L29.0922 39.6165L29.0097 39.5418ZM40.4163 39.5917L40.4438 39.6414L40.4163 39.5917ZM16.9709 39.6165L17.0534 39.6913L16.9709 39.6165ZM29.1746 39.6165L29.2571 39.6913L29.1746 39.6165ZM16.8885 39.6913L16.9709 39.766L16.8885 39.6913ZM29.3395 39.6913L29.422 39.766L29.3395 39.6913ZM12.0509 39.8159L12.0785 39.8656L12.0509 39.8159ZM16.8335 39.8159L16.861 39.8656L16.8335 39.8159ZM29.5044 39.766L29.5869 39.8407L29.5044 39.766ZM29.6694 39.8407L29.7518 39.9155L29.6694 39.8407ZM40.3338 39.8906L40.3614 39.9404L40.3338 39.8906ZM16.7235 39.9155L16.806 39.9902L16.7235 39.9155ZM29.8343 39.9155L29.9167 39.9902L29.8343 39.9155ZM16.6685 40.0401L16.6961 40.0898L16.6685 40.0401ZM29.9992 39.9902L30.0816 40.0649L29.9992 39.9902ZM12.1334 40.1148L12.1609 40.1646L12.1334 40.1148ZM30.1366 40.0898L30.1916 40.1148L30.1366 40.0898ZM16.5586 40.1397L16.6411 40.2144L16.5586 40.1397ZM30.2466 40.1397L30.329 40.2144L30.2466 40.1397ZM40.2514 40.1895L40.2789 40.2393L40.2514 40.1895ZM16.4762 40.2144L16.5586 40.2891L16.4762 40.2144ZM30.4115 40.2144L30.4939 40.2891L30.4115 40.2144ZM12.2158 40.339L12.2434 40.3888L12.2158 40.339ZM30.5764 40.2891L30.6588 40.3639L30.5764 40.2891ZM16.3937 40.3639L16.4762 40.4386L16.3937 40.3639ZM30.7413 40.3639L30.8238 40.4386L30.7413 40.3639ZM16.3113 40.4386L16.3937 40.5133L16.3113 40.4386ZM30.9062 40.4386L30.9887 40.5133L30.9062 40.4386ZM40.1689 40.4885L40.1964 40.5382L40.1689 40.4885ZM12.2708 40.5133V40.7375H12.3533L12.2708 40.5133ZM31.0711 40.5133L31.1536 40.5881L31.0711 40.5133ZM16.2288 40.5881L16.3113 40.6628L16.2288 40.5881ZM31.236 40.5881L31.3185 40.6628L31.236 40.5881ZM16.1463 40.6628L16.2288 40.7375L16.1463 40.6628ZM31.401 40.6628L31.4834 40.7375L31.401 40.6628ZM31.5659 40.7375L31.6483 40.8123L31.5659 40.7375ZM40.0865 40.7874L40.114 40.8372L40.0865 40.7874ZM12.3808 40.8621L12.4083 40.9119L12.3808 40.8621ZM16.0639 40.8123L16.1463 40.887L16.0639 40.8123ZM31.7308 40.8123L31.8132 40.887L31.7308 40.8123ZM15.9814 40.887L16.0639 40.9617L15.9814 40.887ZM31.8957 40.887L31.9782 40.9617L31.8957 40.887ZM15.9264 41.0116L15.954 41.0614L15.9264 41.0116ZM32.0606 40.9617L32.1431 41.0365L32.0606 40.9617ZM12.4358 41.0365V41.2607H12.5182L12.4358 41.0365ZM32.2255 41.0365L32.308 41.1112L32.2255 41.0365ZM40.004 41.0863L40.0315 41.1361L40.004 41.0863ZM15.8165 41.1112L15.899 41.1859L15.8165 41.1112ZM32.3905 41.1112L32.4729 41.1859L32.3905 41.1112ZM15.7341 41.1859L15.8165 41.2607L15.7341 41.1859ZM32.5554 41.1859L32.6378 41.2607L32.5554 41.1859ZM32.7203 41.2607L32.8027 41.3354L32.7203 41.2607ZM12.5457 41.3853L12.5732 41.435L12.5457 41.3853ZM15.6516 41.3354L15.7341 41.4101L15.6516 41.3354ZM32.8852 41.3354L32.9677 41.4101L32.8852 41.3354ZM39.9215 41.3853L39.9491 41.435L39.9215 41.3853ZM15.5691 41.4101L15.6516 41.4849L15.5691 41.4101ZM33.0227 41.435L33.0776 41.46L33.0227 41.435ZM33.1326 41.4849L33.215 41.5596L33.1326 41.4849ZM12.6007 41.5596V41.7838H12.6831L12.6007 41.5596ZM15.4867 41.5596L15.5691 41.6343L15.4867 41.5596ZM33.2975 41.5596L33.3799 41.6343L33.2975 41.5596ZM15.4042 41.6343L15.4867 41.7091L15.4042 41.6343ZM33.4624 41.6343L33.5449 41.7091L33.4624 41.6343ZM39.8391 41.6842L39.8666 41.734L39.8391 41.6842ZM33.6273 41.7091L33.7098 41.7838L33.6273 41.7091ZM12.6831 41.7838V42.008H12.7656L12.6831 41.7838ZM15.3218 41.7838L15.4042 41.8585L15.3218 41.7838ZM33.7922 41.7838L33.8747 41.8585L33.7922 41.7838ZM15.2393 41.8585L15.3218 41.9333L15.2393 41.8585ZM33.9571 41.8585L34.0396 41.9333L33.9571 41.8585ZM15.1843 41.9831L15.2118 42.0329L15.1843 41.9831ZM34.1221 41.9333L34.2045 42.008L34.1221 41.9333ZM39.7566 41.9831L39.7842 42.0329L39.7566 41.9831ZM34.287 42.008L34.3694 42.0827L34.287 42.008ZM12.793 42.1326L12.8206 42.1824L12.793 42.1326ZM15.0744 42.0827L15.1568 42.1575L15.0744 42.0827ZM34.4519 42.0827L34.5343 42.1575L34.4519 42.0827ZM15.0194 42.2073L15.0469 42.2571L15.0194 42.2073ZM34.6168 42.1575L34.6993 42.2322L34.6168 42.1575ZM34.7817 42.2322L34.8642 42.3069L34.7817 42.2322ZM39.6742 42.282L39.7017 42.3318L39.6742 42.282ZM14.9095 42.3069L14.9919 42.3817L14.9095 42.3069ZM34.9466 42.3069L35.0291 42.3817L34.9466 42.3069ZM12.8755 42.4315L12.903 42.4813L12.8755 42.4315ZM14.827 42.3817L14.9095 42.4564L14.827 42.3817ZM35.1115 42.3817L35.194 42.4564L35.1115 42.3817ZM35.2765 42.4564L35.3589 42.5311L35.2765 42.4564ZM14.7446 42.5311L14.827 42.6059L14.7446 42.5311ZM35.4414 42.5311L35.5238 42.6059L35.4414 42.5311ZM39.5917 42.581L39.6192 42.6308L39.5917 42.581ZM12.958 42.6557L12.9855 42.7055L12.958 42.6557ZM14.6621 42.6059L14.7446 42.6806L14.6621 42.6059ZM35.6063 42.6059L35.6887 42.6806L35.6063 42.6059ZM35.7712 42.6806L35.8537 42.7553L35.7712 42.6806ZM14.5796 42.7553L14.6621 42.8301L14.5796 42.7553ZM35.9087 42.7802L35.9636 42.8052L35.9087 42.7802ZM13.013 42.8301V43.0543H13.0954L13.013 42.8301ZM14.4972 42.8301L14.5796 42.9048L14.4972 42.8301ZM36.0186 42.8301L36.101 42.9048L36.0186 42.8301ZM39.5092 42.8799L39.5368 42.9297L39.5092 42.8799ZM14.4422 42.9546L14.4697 43.0044L14.4422 42.9546ZM36.1835 42.9048L36.266 42.9795L36.1835 42.9048ZM36.3484 42.9795L36.4309 43.0543L36.3484 42.9795ZM14.3323 43.0543L14.4147 43.129L14.3323 43.0543ZM36.5133 43.0543L36.5958 43.129L36.5133 43.0543ZM13.1229 43.1788L13.1504 43.2286L13.1229 43.1788ZM14.2773 43.1788L14.3048 43.2286L14.2773 43.1788ZM36.6782 43.129L36.7607 43.2037L36.6782 43.129ZM39.4268 43.1788L39.4543 43.2286L39.4268 43.1788ZM36.8432 43.2037L36.9256 43.2785L36.8432 43.2037ZM14.1674 43.2785L14.2498 43.3532L14.1674 43.2785ZM37.0081 43.2785L37.0905 43.3532L37.0081 43.2785ZM13.1779 43.3532V43.5774H13.2603L13.1779 43.3532ZM14.0849 43.3532L14.1674 43.4279L14.0849 43.3532ZM37.173 43.3532L37.2554 43.4279L37.173 43.3532ZM37.3379 43.4279L37.4204 43.5027L37.3379 43.4279ZM39.3443 43.4778L39.3719 43.5276L39.3443 43.4778ZM14.0024 43.5027L14.0849 43.5774L14.0024 43.5027ZM37.5028 43.5027L37.5853 43.5774L37.5028 43.5027ZM13.92 43.5774L14.0024 43.6521L13.92 43.5774ZM37.6677 43.5774L37.7502 43.6521L37.6677 43.5774ZM13.2878 43.702L13.3153 43.7518L13.2878 43.702ZM37.8326 43.6521L37.9151 43.7269L37.8326 43.6521ZM13.8375 43.7269L13.92 43.8016L13.8375 43.7269ZM37.9976 43.7269L38.08 43.8016L37.9976 43.7269ZM39.2619 43.7767L39.2894 43.8265L39.2619 43.7767ZM13.7551 43.8016L13.8375 43.8763L13.7551 43.8016ZM38.1625 43.8016L38.2449 43.8763L38.1625 43.8016ZM13.3428 43.8763V44.1005H13.4252L13.3428 43.8763ZM38.3274 43.8763L38.4098 43.9511L38.3274 43.8763ZM13.6726 43.9511L13.7551 44.0258L13.6726 43.9511ZM38.4648 43.976L38.5198 44.0009L38.4648 43.976ZM13.5902 44.0258L13.6726 44.1005L13.5902 44.0258ZM38.6572 44.0258L38.7397 44.1005L38.6572 44.0258ZM39.1794 44.0756L39.207 44.1254L39.1794 44.0756ZM13.4252 44.1005V44.25H13.5902V44.1005H13.4252ZM38.7947 44.1254L38.8496 44.1504L38.7947 44.1254ZM38.9046 44.1753L38.987 44.25L38.9046 44.1753Z" fill="#B6DFEB"/>
</g>
<defs>
<clipPath id="clip0_134_22055">
<rect width="53" height="48" fill="white"/>
</clipPath>
</defs>
</svg>
