<svg width="16" height="31" viewBox="0 0 16 31" fill="none" xmlns="http://www.w3.org/2000/svg">
<path d="M14.1931 9.15911V13.7046H0.727228V9.15911H14.1931ZM3.80961 30.9773V7.58241C3.80961 6.00097 4.11738 4.68941 4.73291 3.64775C5.35791 2.60608 6.21018 1.82483 7.28973 1.304C8.36927 0.783164 9.5956 0.522748 10.9687 0.522748C11.8967 0.522748 12.7443 0.593771 13.5113 0.735817C14.2878 0.877862 14.8655 1.0057 15.2443 1.11934L14.1647 5.66479C13.928 5.58904 13.6344 5.51801 13.284 5.45173C12.9431 5.38544 12.5928 5.35229 12.2329 5.35229C11.3428 5.35229 10.7225 5.56063 10.3721 5.97729C10.0217 6.38449 9.84655 6.95741 9.84655 7.69604V30.9773H3.80961Z" fill="#3B5999"/>
</svg>
