<svg width="39" height="37" viewBox="0 0 39 37" fill="none" xmlns="http://www.w3.org/2000/svg">
<path fill-rule="evenodd" clip-rule="evenodd" d="M7.24111 0.851196C7.70419 0.310935 8.38023 0 9.09179 0H29.9082C30.6198 0 31.2958 0.310933 31.7589 0.851196L38.1198 8.27223C38.6878 8.9349 39 9.7789 39 10.6517V11.2734C39 14.4706 36.4081 17.0625 33.2109 17.0625C31.3532 17.0625 29.6999 16.1875 28.6406 14.8271C27.5813 16.1875 25.928 17.0625 24.0703 17.0625C22.2126 17.0625 20.5593 16.1875 19.5 14.8271C18.4407 16.1875 16.7874 17.0625 14.9297 17.0625C13.072 17.0625 11.4187 16.1875 10.3594 14.8271C9.3001 16.1875 7.64677 17.0625 5.78906 17.0625C2.59185 17.0625 0 14.4706 0 11.2734V10.6517C0 9.7789 0.312215 8.9349 0.880218 8.27223L7.24111 0.851196ZM11.5781 11.2734C11.5781 13.1245 13.0787 14.625 14.9297 14.625C16.7807 14.625 18.2812 13.1245 18.2812 11.2734C18.2812 10.6003 18.8269 10.0547 19.5 10.0547C20.1731 10.0547 20.7188 10.6003 20.7188 11.2734C20.7188 13.1245 22.2193 14.625 24.0703 14.625C25.9213 14.625 27.4219 13.1245 27.4219 11.2734C27.4219 10.6003 27.9675 10.0547 28.6406 10.0547C29.3137 10.0547 29.8594 10.6003 29.8594 11.2734C29.8594 13.1245 31.3599 14.625 33.2109 14.625C35.062 14.625 36.5625 13.1245 36.5625 11.2734V10.6517C36.5625 10.3608 36.4584 10.0794 36.2691 9.85854L29.9082 2.4375H9.09179L2.73091 9.85854C2.54157 10.0794 2.4375 10.3608 2.4375 10.6517V11.2734C2.4375 13.1245 3.93805 14.625 5.78906 14.625C7.64008 14.625 9.14062 13.1245 9.14062 11.2734C9.14062 10.6003 9.68628 10.0547 10.3594 10.0547C11.0325 10.0547 11.5781 10.6003 11.5781 11.2734ZM3.65625 18.2812C4.32935 18.2812 4.875 18.8269 4.875 19.5V34.125H34.125V19.5C34.125 18.8269 34.6707 18.2812 35.3438 18.2812C36.0168 18.2812 36.5625 18.8269 36.5625 19.5V34.125H37.7812C38.4543 34.125 39 34.6707 39 35.3438C39 36.0168 38.4543 36.5625 37.7812 36.5625H1.21875C0.545653 36.5625 0 36.0168 0 35.3438C0 34.6707 0.545653 34.125 1.21875 34.125H2.4375V19.5C2.4375 18.8269 2.98315 18.2812 3.65625 18.2812ZM8.53125 19.5C9.20435 19.5 9.75 20.0457 9.75 20.7188V29.25H29.25V20.7188C29.25 20.0457 29.7957 19.5 30.4688 19.5C31.1418 19.5 31.6875 20.0457 31.6875 20.7188V29.25C31.6875 30.5962 30.5962 31.6875 29.25 31.6875H9.75C8.40381 31.6875 7.3125 30.5962 7.3125 29.25V20.7188C7.3125 20.0457 7.85815 19.5 8.53125 19.5Z" fill="#000000"/>
</svg>
