<svg width="26" height="25" viewBox="0 0 26 25" fill="none" xmlns="http://www.w3.org/2000/svg">
<g clip-path="url(#clip0_285_65684)">
<path d="M26 12.8021C26.0014 12.5988 25.8964 12.4096 25.7231 12.3033H25.72L25.7092 12.2972L16.6999 6.96424C16.661 6.93795 16.6206 6.91393 16.5789 6.89229C16.2311 6.71282 15.8179 6.71282 15.47 6.89229C15.4283 6.91394 15.388 6.93795 15.3491 6.96424L6.33979 12.2972L6.32891 12.3033C6.05356 12.4745 5.96914 12.8366 6.14037 13.1119C6.19082 13.193 6.26031 13.2606 6.34281 13.3088L15.3521 18.6418C15.3911 18.6679 15.4315 18.6919 15.473 18.7138C15.8209 18.8933 16.2341 18.8933 16.582 18.7138C16.6235 18.6919 16.6639 18.6679 16.7029 18.6418L25.7122 13.3088C25.8922 13.2039 26.0021 13.0105 26 12.8021Z" fill="#0A2767"/>
<path d="M7.39002 9.24137H13.3023V14.6608H7.39002V9.24137ZM24.7907 3.73239V1.25332C24.8049 0.633499 24.3143 0.119345 23.6944 0.104492H8.35203C7.73221 0.119345 7.24159 0.633499 7.25579 1.25332V3.73239L16.3256 6.15099L24.7907 3.73239Z" fill="#0364B8"/>
<path d="M7.25586 3.73239H13.3024V9.17425H7.25586V3.73239Z" fill="#0078D4"/>
<path d="M19.3488 3.73239H13.3022V9.17425L19.3488 14.6161H24.7906V9.17425L19.3488 3.73239Z" fill="#28A8EA"/>
<path d="M13.3022 9.17426H19.3487V14.6161H13.3022V9.17426Z" fill="#0078D4"/>
<path d="M13.3022 14.6161H19.3487V20.0579H13.3022V14.6161Z" fill="#0364B8"/>
<path d="M7.39001 14.6609H13.3023V19.5876H7.39001V14.6609Z" fill="#14447D"/>
<path d="M19.3489 14.6161H24.7907V20.0579H19.3489V14.6161Z" fill="#0078D4"/>
<path d="M25.723 13.2756L25.7116 13.2816L16.7023 18.3486C16.663 18.3728 16.6231 18.3958 16.5813 18.4163C16.4283 18.4892 16.2621 18.5303 16.0928 18.5373L15.6006 18.2494C15.559 18.2286 15.5186 18.2054 15.4797 18.1799L6.34943 12.969H6.3452L6.04651 12.8022V23.0594C6.05117 23.7438 6.60955 24.2949 7.2939 24.2905H24.7719C24.7822 24.2905 24.7913 24.2857 24.8022 24.2857C24.9467 24.2764 25.0892 24.2467 25.2254 24.1974C25.2843 24.1725 25.3411 24.1429 25.3953 24.1091C25.4358 24.0861 25.5054 24.036 25.5054 24.036C25.8151 23.8068 25.9984 23.4448 26 23.0595V12.8022C25.9998 12.9983 25.8939 13.1792 25.723 13.2756Z" fill="url(#paint0_linear_285_65684)"/>
<path opacity="0.5" d="M25.5163 12.7616V13.3905L16.0958 19.8766L6.34282 12.9733C6.34282 12.9699 6.34011 12.9672 6.33677 12.9672L5.44189 12.4291V11.9756L5.81073 11.9695L6.59073 12.417L6.60886 12.423L6.67537 12.4654C6.67537 12.4654 15.8419 17.6956 15.8661 17.7077L16.2167 17.9133C16.247 17.9012 16.2772 17.8891 16.3135 17.877C16.3316 17.8649 25.4135 12.7556 25.4135 12.7556L25.5163 12.7616Z" fill="#0A2767"/>
<path d="M25.723 13.2756L25.7115 13.2822L16.7022 18.3492C16.6629 18.3734 16.623 18.3964 16.5813 18.4169C16.2314 18.5879 15.8223 18.5879 15.4724 18.4169C15.4309 18.3964 15.3906 18.3738 15.3514 18.3492L6.34218 13.2822L6.3313 13.2756C6.15736 13.1813 6.04831 13 6.04651 12.8022V23.0594C6.05084 23.7437 6.60903 24.2948 7.29324 24.2905C7.29326 24.2905 7.29327 24.2905 7.2933 24.2905H24.7532C25.4374 24.2949 25.9956 23.7437 26 23.0595C26 23.0595 26 23.0595 26 23.0594V12.8022C25.9997 12.9983 25.8939 13.1792 25.723 13.2756Z" fill="#1490DF"/>
<path opacity="0.1" d="M16.8334 18.2742L16.6986 18.3498C16.6595 18.3747 16.6192 18.3975 16.5777 18.4181C16.4291 18.4911 16.2676 18.5338 16.1024 18.5439L19.5302 22.5975L25.5096 24.0384C25.6734 23.9146 25.8037 23.7518 25.8887 23.5649L16.8334 18.2742Z" fill="black"/>
<path opacity="0.05" d="M17.4441 17.9308L16.6986 18.3498C16.6595 18.3747 16.6192 18.3975 16.5777 18.4181C16.4291 18.491 16.2676 18.5338 16.1024 18.5439L17.7084 22.9718L25.5114 24.0365C25.8188 23.8057 25.9997 23.4438 25.9999 23.0594V22.927L17.4441 17.9308Z" fill="black"/>
<path d="M7.31023 24.2905H24.7514C25.0197 24.2919 25.2815 24.2071 25.4981 24.0487L15.6 18.2507C15.5584 18.2298 15.518 18.2066 15.479 18.1811L6.34882 12.9702H6.34459L6.04651 12.8022V23.0244C6.04583 23.723 6.61161 24.2898 7.31023 24.2905C7.31021 24.2905 7.31021 24.2905 7.31023 24.2905Z" fill="#28A8EA"/>
<path opacity="0.1" d="M14.5116 6.05V18.9472C14.5105 19.3994 14.2356 19.8058 13.8163 19.9751C13.6864 20.0309 13.5465 20.0597 13.4051 20.0598H6.04651V5.54633H7.25581V4.94168H13.4051C14.016 4.944 14.5103 5.43915 14.5116 6.05Z" fill="black"/>
<path opacity="0.2" d="M13.907 6.65467V19.5519C13.9085 19.6979 13.8775 19.8425 13.8163 19.9751C13.6484 20.389 13.2471 20.6605 12.8005 20.6626H6.04651V5.54635H12.8005C12.9759 5.54459 13.1488 5.58835 13.3023 5.67333C13.673 5.86006 13.9068 6.23964 13.907 6.65467Z" fill="black"/>
<path opacity="0.2" d="M13.907 6.65467V18.3426C13.904 18.9531 13.411 19.448 12.8005 19.4533H6.04651V5.54635H12.8005C12.9759 5.54459 13.1488 5.58835 13.3023 5.67333C13.673 5.86006 13.9068 6.23964 13.907 6.65467Z" fill="black"/>
<path opacity="0.2" d="M13.3023 6.65468V18.3426C13.3017 18.9541 12.8073 19.4503 12.1958 19.4533H6.04651V5.54636H12.1958C12.8072 5.54668 13.3026 6.04263 13.3023 6.65408C13.3023 6.65428 13.3023 6.65448 13.3023 6.65468Z" fill="black"/>
<path d="M1.10832 5.54636H12.194C12.8061 5.54636 13.3023 6.04258 13.3023 6.65468V17.7403C13.3023 18.3525 12.8061 18.8487 12.194 18.8487H1.10832C0.496206 18.8487 0 18.3524 0 17.7403V6.65468C0 6.04258 0.49622 5.54636 1.10832 5.54636Z" fill="url(#paint1_linear_285_65684)"/>
<path d="M3.46407 10.1949C3.73724 9.61292 4.17815 9.12587 4.73022 8.79636C5.34159 8.44634 6.0377 8.27184 6.74189 8.29208C7.39456 8.27792 8.03858 8.44337 8.60361 8.77035C9.13486 9.08716 9.56273 9.55136 9.83528 10.1066C10.1321 10.7185 10.28 11.3918 10.267 12.0717C10.2814 12.7823 10.1292 13.4864 9.82259 14.1275C9.54354 14.7027 9.1021 15.1834 8.55282 15.5104C7.96601 15.8474 7.29808 16.0172 6.62157 16.0014C5.95496 16.0174 5.29674 15.8501 4.71873 15.5176C4.18288 15.2004 3.74965 14.7357 3.47073 14.1789C3.17215 13.5759 3.02246 12.9102 3.03418 12.2374C3.02174 11.5329 3.1687 10.8347 3.46407 10.1949ZM4.81365 13.4782C4.95929 13.8461 5.20627 14.1652 5.52593 14.3984C5.85152 14.626 6.24138 14.7434 6.63848 14.7334C7.06138 14.7501 7.47822 14.6287 7.82602 14.3875C8.14162 14.155 8.38212 13.8351 8.51773 13.4673C8.66934 13.0565 8.74415 12.6214 8.73843 12.1836C8.74312 11.7416 8.67279 11.3021 8.53043 10.8836C8.40469 10.5058 8.17195 10.1727 7.86048 9.92463C7.5214 9.67203 7.10568 9.54391 6.68322 9.56184C6.27752 9.55134 5.87892 9.66966 5.54467 9.89984C5.21961 10.1341 4.96794 10.456 4.81909 10.828C4.48889 11.6806 4.48717 12.6255 4.81425 13.4794L4.81365 13.4782Z" fill="white"/>
<path d="M19.3489 3.73239H24.7907V9.17425H19.3489V3.73239Z" fill="#50D9FF"/>
</g>
<defs>
<linearGradient id="paint0_linear_285_65684" x1="16.0232" y1="12.8022" x2="16.0232" y2="24.2905" gradientUnits="userSpaceOnUse">
<stop stop-color="#35B8F1"/>
<stop offset="1" stop-color="#28A8EA"/>
</linearGradient>
<linearGradient id="paint1_linear_285_65684" x1="2.31088" y1="4.68034" x2="10.9914" y2="19.7147" gradientUnits="userSpaceOnUse">
<stop stop-color="#1784D9"/>
<stop offset="0.5" stop-color="#107AD5"/>
<stop offset="1" stop-color="#0A63C9"/>
</linearGradient>
<clipPath id="clip0_285_65684">
<rect width="26" height="24.186" fill="white" transform="translate(0 0.104492)"/>
</clipPath>
</defs>
</svg>
