<svg width="39" height="39" viewBox="0 0 39 39" fill="none" xmlns="http://www.w3.org/2000/svg">
<path d="M12.3569 24.3382C12.1912 24.3521 12.0259 24.3593 11.8602 24.3593C11.4068 24.3593 10.9659 24.2935 10.5342 24.1936L0.544035 34.1841C0.0536811 34.6737 0.0536811 35.469 0.544035 35.9587L3.12958 38.5449C3.61993 39.0346 4.41439 39.0346 4.90339 38.5449L16.9102 26.5403L14.6851 24.1395L12.3569 24.3382Z" fill="black"/>
<path d="M38.6475 8.33307C38.1786 7.86445 37.4198 7.86445 36.9511 8.33307L30.477 14.807C29.8644 15.4189 28.8722 15.4189 28.2596 14.807C27.6497 14.1955 27.6497 13.204 28.2596 12.5927L34.7016 6.15204C35.1883 5.66487 35.1883 4.87511 34.7016 4.38683C34.2126 3.90029 33.4232 3.90029 32.9365 4.38683L26.4971 10.8269C25.8845 11.4395 24.8934 11.4395 24.2808 10.8269C23.6695 10.2156 23.6695 9.22347 24.2808 8.61272L30.7535 2.13946C31.2236 1.67013 31.2236 0.909918 30.7535 0.439949C30.2846 -0.0294622 29.5245 -0.0294622 29.0544 0.439949L21.7717 7.72303C20.0207 9.4751 19.4676 11.9344 20.0345 14.1722L24.9165 19.0546C27.1542 19.6194 29.6147 19.0661 31.3637 17.3154L38.6474 10.0327C39.1176 9.56341 39.1176 8.8024 38.6475 8.33307Z" fill="black"/>
<path d="M3.27215 1.09819C3.02259 0.848552 2.68513 0.71167 2.33858 0.71167C2.26485 0.71167 2.19071 0.717961 2.11833 0.730064C1.69669 0.801412 1.33494 1.07207 1.14909 1.45731C-0.984166 5.8666 -0.0926427 11.1426 3.37025 14.6057L9.56545 20.8001C10.1767 21.412 11.0031 21.7508 11.8603 21.7508C11.9519 21.7508 12.0438 21.747 12.1355 21.7394L15.7324 21.4324L31.4169 38.3526C31.6604 38.6157 32.0016 38.7684 32.3609 38.7755C32.3683 38.7755 32.3761 38.7755 32.3839 38.7755C32.7352 38.7755 33.0715 38.6367 33.3212 38.3889L36.0074 35.7021C36.2556 35.4545 36.3943 35.1184 36.3943 34.7681C36.3943 34.4179 36.2556 34.0815 36.0084 33.8339L3.27215 1.09819Z" fill="black"/>
</svg>
