<svg width="22" height="22" viewBox="0 0 22 22" fill="none" xmlns="http://www.w3.org/2000/svg">
<path fill-rule="evenodd" clip-rule="evenodd" d="M11 0C17.0751 0 22 4.92487 22 11C22 17.0751 17.0751 22 11 22C9.32919 22 7.74539 21.6275 6.32711 20.961L5.66967 21.1786C3.43285 21.8954 1.86994 22.1431 0.980834 21.9215C-0.0688527 21.6598 -0.27601 21.2019 0.359363 20.5477C0.798563 20.0244 1.16456 19.3702 1.45736 18.5852C1.69071 17.9596 1.59861 17.0846 1.18106 15.9604C0.424865 14.4695 0 12.7844 0 11C0 4.92487 4.92487 0 11 0ZM11 2C6.02944 2 2 6.02944 2 11C2 12.3125 2.27995 13.5803 2.81309 14.7417L2.96474 15.0557L3.01627 15.1573L3.05592 15.2641C3.62488 16.7959 3.76452 18.1225 3.33126 19.2841L3.18786 19.6485L3.116 19.811L3.204 19.792C3.72133 19.6735 4.3356 19.5044 5.03639 19.281L5.68182 19.068L6.44653 18.8073L7.17773 19.1509C8.36235 19.7076 9.65848 20 11 20C15.9706 20 20 15.9706 20 11C20 6.02944 15.9706 2 11 2ZM12 8V10H14C15.3333 10 15.3333 12 14 12H12V14C12 15.3333 10 15.3333 10 14V12H8C6.66667 12 6.66667 10 8 10H10V8C10 6.66667 12 6.66667 12 8Z" fill="#742DDD"/>
</svg>
