<svg width="16" height="16" viewBox="0 0 16 16" fill="none" xmlns="http://www.w3.org/2000/svg">
<path fill-rule="evenodd" clip-rule="evenodd" d="M14.8862 1.55137C14.9063 1.61574 14.9165 1.68278 14.9165 1.75022V13.27C14.9165 13.6382 14.618 13.9366 14.2498 13.9366C14.1824 13.9366 14.1154 13.9264 14.051 13.9063L9.56332 12.5038C9.4021 13.8223 8.27855 14.8434 6.9165 14.8434C5.44374 14.8434 4.24984 13.6495 4.24984 12.1768L4.24975 10.8434L2.9165 10.8434C1.83278 10.8434 0.950368 9.98147 0.917456 8.90572L0.916504 8.84342V6.17676C0.916504 5.07219 1.81193 4.17676 2.9165 4.17676H4.24984L14.051 1.1139C14.4024 1.00408 14.7763 1.19994 14.8862 1.55137ZM5.58317 11.3234V12.1768C5.58317 12.9131 6.18012 13.5101 6.9165 13.5101C7.61941 13.5101 8.19528 12.9662 8.24618 12.2763L8.24984 12.1568L5.58317 11.3234ZM13.5832 2.65676L5.58317 5.15609V9.86343L13.5832 12.3628V2.65676ZM4.24984 5.51009H2.9165C2.57461 5.51009 2.29283 5.76745 2.25432 6.09901L2.24984 6.17676V8.84342C2.24984 9.21161 2.54831 9.51009 2.9165 9.51009H4.24984V5.51009Z" fill="#259C72"/>
</svg>
