<svg width="18" height="20" viewBox="0 0 18 20" fill="none" xmlns="http://www.w3.org/2000/svg">
<path d="M15.4 9.09961H2.8C1.80589 9.09961 1 9.9055 1 10.8996V17.1996C1 18.1937 1.80589 18.9996 2.8 18.9996H15.4C16.3941 18.9996 17.2 18.1937 17.2 17.1996V10.8996C17.2 9.9055 16.3941 9.09961 15.4 9.09961Z" stroke="#A3A3A3" stroke-width="1.5" stroke-linecap="round" stroke-linejoin="round"/>
<path d="M4.59961 9.1V5.5C4.59961 4.30653 5.07372 3.16193 5.91763 2.31802C6.76154 1.47411 7.90614 1 9.09961 1C10.2931 1 11.4377 1.47411 12.2816 2.31802C13.1255 3.16193 13.5996 4.30653 13.5996 5.5V9.1" stroke="#A3A3A3" stroke-width="1.5" stroke-linecap="round" stroke-linejoin="round"/>
</svg>
