<svg width="14" height="16" viewBox="0 0 14 16" fill="none" xmlns="http://www.w3.org/2000/svg">
<path d="M7 0.125C3.62266 0.125 0.875 2.87266 0.875 6.25C0.875 7.89062 1.86897 9.9975 3.82928 12.5118C4.72739 13.6608 5.7 14.7495 6.74081 15.771C6.8106 15.8377 6.90344 15.875 7 15.875C7.09656 15.875 7.1894 15.8377 7.25919 15.771C8.3 14.7495 9.27261 13.6608 10.1707 12.5118C12.131 9.9975 13.125 7.89062 13.125 6.25C13.125 2.87266 10.3773 0.125 7 0.125ZM7 10.625C4.5875 10.625 2.625 8.6625 2.625 6.25C2.625 3.8375 4.5875 1.875 7 1.875C9.4125 1.875 11.375 3.8375 11.375 6.25C11.375 8.6625 9.4125 10.625 7 10.625Z" fill="black"/>
<path d="M10.0032 5.72252L7.25323 3.22252C7.18421 3.15977 7.09427 3.125 7.00098 3.125C6.9077 3.125 6.81776 3.15977 6.74874 3.22252L3.99875 5.72252C3.93468 5.78078 3.89274 5.85941 3.88004 5.94507C3.86733 6.03073 3.88465 6.11814 3.92906 6.19249C3.96409 6.24909 4.01319 6.29565 4.07157 6.32764C4.12995 6.35962 4.19562 6.37593 4.26218 6.37499H4.62599V8.74999C4.62599 8.84945 4.6655 8.94483 4.73583 9.01515C4.80615 9.08548 4.90154 9.12499 5.00099 9.12499H5.87599C5.97544 9.12499 6.07083 9.08548 6.14115 9.01515C6.21148 8.94483 6.25099 8.84945 6.25099 8.74999V7.37499C6.25099 7.27553 6.2905 7.18015 6.36082 7.10982C6.43115 7.0395 6.52653 6.99999 6.62599 6.99999H7.37598C7.47544 6.99999 7.57082 7.0395 7.64115 7.10982C7.71147 7.18015 7.75098 7.27553 7.75098 7.37499V8.74999C7.75098 8.84945 7.79049 8.94483 7.86082 9.01515C7.93114 9.08548 8.02652 9.12499 8.12598 9.12499H9.00098C9.10043 9.12499 9.19582 9.08548 9.26614 9.01515C9.33647 8.94483 9.37598 8.84945 9.37598 8.74999V6.37499H9.73979C9.80635 6.37593 9.87202 6.35962 9.9304 6.32764C9.98878 6.29565 10.0379 6.24909 10.0729 6.19249C10.1173 6.11814 10.1346 6.03073 10.1219 5.94507C10.1092 5.85941 10.0673 5.78078 10.0032 5.72252Z" fill="black"/>
</svg>
